<svg width="20" height="20" viewBox="0 0 20 20" fill="none" xmlns="http://www.w3.org/2000/svg">
<path d="M19.9892 4.9349C19.9774 4.49673 19.9514 4.05507 19.8735 3.62168C19.7991 3.18702 19.6604 2.76586 19.462 2.37206C19.0589 1.58151 18.4159 0.938831 17.6251 0.536097C17.2316 0.33827 16.8109 0.200033 16.3768 0.125916C15.9434 0.0464236 15.5014 0.0203501 15.063 0.00890316C14.862 0.0031797 14.6607 0.00095391 14.4588 0C14.2204 0 13.9819 0 13.7434 0H6.25406C6.01558 0 5.77711 0 5.53863 0C5.33736 0 5.13641 0.0031797 4.9345 0.00890316C4.49666 0.020986 4.05469 0.0464236 3.6213 0.125916C3.18709 0.19988 2.76634 0.338237 2.37297 0.536415C1.58229 0.939392 0.939333 1.58214 0.536089 2.37269C0.338097 2.76698 0.199961 3.18858 0.126232 3.62359C0.0467409 4.05539 0.0206677 4.49769 0.00890302 4.93553C0.00349762 5.13681 0.00127186 5.33776 0 5.53967C0 5.77815 0 6.01695 0 6.25606V13.7423C0 13.981 0 14.2199 0 14.4591C0 14.66 0.00349762 14.8613 0.00890302 15.0632C0.0206677 15.5007 0.0467409 15.9424 0.126232 16.3758C0.200539 16.8103 0.339212 17.2314 0.537679 17.6251C0.940691 18.4158 1.58371 19.0586 2.37456 19.4614C2.76759 19.659 3.18773 19.7973 3.6213 19.8719C4.05469 19.9494 4.49666 19.9758 4.93514 19.9873C5.13641 19.993 5.33736 19.9952 5.53927 19.9962C5.77806 19.9962 6.01622 19.9962 6.25596 19.9962H13.7425C13.9812 19.9962 14.2194 19.9962 14.4591 19.9962C14.6601 19.9962 14.8614 19.993 15.0633 19.9873C15.5018 19.9758 15.944 19.9494 16.3774 19.8719C16.8117 19.7974 17.2324 19.6586 17.6258 19.4601C18.4164 19.0572 19.0593 18.4144 19.4623 17.6238C19.66 17.2304 19.798 16.8098 19.8719 16.3758C19.9494 15.9424 19.9755 15.5001 19.9873 15.0622C19.993 14.8613 19.9952 14.66 19.9962 14.4581C19.9962 14.2193 19.9962 13.9811 19.9962 13.7414V6.25511C19.9962 6.01599 19.9962 5.77709 19.9962 5.5384C19.9968 5.33713 19.9946 5.13617 19.9892 4.9349Z" fill="url(#paint0_linear_103_128)"/>
<path d="M14.138 3.05448C14.0897 3.05893 13.6611 3.13493 13.6086 3.14542L7.66265 4.34512H7.66201C7.52628 4.36959 7.39883 4.42764 7.29127 4.51396C7.17807 4.60935 7.11511 4.74322 7.09127 4.89998C7.08179 4.96653 7.07732 5.03371 7.07791 5.10093V12.5414C7.07791 12.7154 7.06392 12.8842 6.94627 13.0282C6.82863 13.1723 6.683 13.2155 6.51225 13.2508L6.12402 13.329C5.63308 13.4279 5.31352 13.4953 5.02417 13.6076C4.74723 13.7147 4.54023 13.8515 4.37521 14.0248C4.08991 14.3316 3.93798 14.7391 3.95277 15.1578C3.96755 15.5765 4.14784 15.9722 4.45406 16.2582C4.65609 16.4455 4.90583 16.5734 5.17584 16.628C5.47187 16.6874 5.78729 16.6671 6.24834 16.5736C6.49273 16.529 6.72769 16.443 6.94309 16.3192C7.15976 16.1918 7.34641 16.0191 7.49031 15.813C7.63284 15.6064 7.73183 15.3729 7.78125 15.1268C7.82971 14.8844 7.85189 14.6374 7.84739 14.3901V7.93278C7.84739 7.58746 7.94532 7.4962 8.22417 7.42848C8.22417 7.42848 13.1654 6.43164 13.3959 6.38681C13.7173 6.32512 13.869 6.41669 13.869 6.75406V11.1595C13.869 11.3341 13.869 11.5093 13.7485 11.6553C13.628 11.8012 13.4852 11.8425 13.3145 11.8778L12.9262 11.9545C12.4353 12.0537 12.1157 12.1208 11.8264 12.233C11.5498 12.3402 11.3425 12.4769 11.1774 12.6502C11.0328 12.8003 10.9198 12.978 10.8451 13.1726C10.7705 13.3673 10.7358 13.575 10.743 13.7833C10.7503 13.9917 10.7993 14.1965 10.8873 14.3855C10.9752 14.5745 11.1003 14.7439 11.255 14.8836C11.4574 15.0697 11.7071 15.1965 11.9768 15.2502C12.2728 15.3097 12.5882 15.2887 13.0496 15.1958C13.2942 15.1519 13.5295 15.0665 13.7453 14.9434C13.9621 14.816 14.1487 14.6434 14.2925 14.4372C14.4351 14.2305 14.5341 13.9971 14.5835 13.751C14.6369 13.4966 14.6391 13.2677 14.6391 13.0146V3.58008C14.6391 3.23763 14.4598 3.0265 14.138 3.05448Z" fill="white"/>
<defs>
<linearGradient id="paint0_linear_103_128" x1="9.91622" y1="19.9423" x2="9.91622" y2="0.450405" gradientUnits="userSpaceOnUse">
<stop stop-color="#FA233B"/>
<stop offset="1" stop-color="#FB5C74"/>
</linearGradient>
</defs>
</svg>
