<svg width="20" height="20" viewBox="0 0 20 20" fill="none" xmlns="http://www.w3.org/2000/svg">
<path d="M17.9129 3.88599C18.3885 4.50083 18.7906 5.16783 19.111 5.87373L10.0022 12.5886L6.19528 10.2022V7.33126L10.0022 9.71763L17.9129 3.88599Z" fill="white"/>
<path d="M2.31285 9.99947C2.31285 9.8709 2.31285 9.74234 2.3221 9.61915L0.0123382 9.50269C0.00462871 9.66702 3.01754e-06 9.8336 3.01754e-06 10.0017C-0.00101822 11.3135 0.257183 12.613 0.760158 13.8274C1.2612 15.0376 1.99831 16.1389 2.9296 17.0688L4.56633 15.4332C3.84958 14.7189 3.28219 13.8723 2.89646 12.9419C2.50972 12.0079 2.31148 11.0085 2.31285 9.99947Z" fill="url(#paint0_linear_147_21)"/>
<path d="M9.99989 2.30953C10.1286 2.30953 10.2566 2.31409 10.3853 2.32094L10.4994 0.0129321C10.3354 0.00431072 10.169 0 9.99989 0C8.68319 0.000225753 7.37978 0.259412 6.16579 0.762411C4.95181 1.26541 3.85161 2.00213 2.9295 2.92951L4.56545 4.56429C5.27558 3.84885 6.12284 3.27995 7.05793 2.89071C7.98943 2.50515 8.98973 2.30754 9.99989 2.30953Z" fill="url(#paint1_linear_147_21)"/>
<path d="M9.99998 17.6896C9.87123 17.6896 9.7433 17.6896 9.61454 17.6798L9.49969 19.9863C9.66515 19.9943 9.8317 19.9986 9.99925 19.9992C11.3133 20.0001 12.6143 19.7414 13.8254 19.2384C15.0394 18.7335 16.14 17.9961 17.0635 17.0689L15.4344 15.4341C14.7259 16.1475 13.8804 16.7144 12.9474 17.1017C12.0142 17.4889 11.0123 17.6888 9.99998 17.6896Z" fill="url(#paint2_linear_147_21)"/>
<path d="M14.3352 3.65143L16.2794 2.21825C14.5094 0.782192 12.2885 -0.0019871 9.99698 3.78153e-06V2.30953C11.5482 2.30832 13.0623 2.7767 14.3352 3.65143Z" fill="url(#paint3_linear_147_21)"/>
<path d="M20 9.99974C20.0018 9.39904 19.9503 8.79933 19.8458 8.20752L17.6932 9.79433V9.99974C17.6941 11.0733 17.4691 12.1353 17.0325 13.1187C16.5976 14.0983 15.9597 14.9772 15.1599 15.6991L16.7126 17.4152C17.7522 16.4757 18.5811 15.332 19.1457 14.0574C19.7116 12.7777 20.0026 11.396 20 9.99974Z" fill="white"/>
<path d="M9.9998 17.6896C8.92453 17.6899 7.86154 17.4645 6.88127 17.0286C5.89699 16.5907 5.01745 15.9527 4.30014 15.1565L2.58478 16.7083C3.51833 17.7437 4.66264 18.5731 5.94303 19.1426C7.21843 19.7088 8.60123 20.001 9.9998 20V17.6896Z" fill="url(#paint4_linear_147_21)"/>
<path d="M4.84388 4.30031L3.29196 2.58643C2.25229 3.52512 1.42323 4.66813 0.858074 5.94193C0.290354 7.22125 -0.00184022 8.60299 8.72019e-06 9.99961H2.31285C2.31205 8.92604 2.53703 7.86401 2.97356 6.88065C3.4078 5.90125 4.04489 5.02231 4.84388 4.30031Z" fill="url(#paint5_linear_147_21)"/>
<defs>
<linearGradient id="paint0_linear_147_21" x1="3.41685" y1="16.7737" x2="0.893495" y2="9.47787" gradientUnits="userSpaceOnUse">
<stop offset="0.89" stop-color="white"/>
</linearGradient>
<linearGradient id="paint1_linear_147_21" x1="3.58249" y1="3.32204" x2="10.0836" y2="0.844192" gradientUnits="userSpaceOnUse">
<stop offset="0.06" stop-color="white"/>
</linearGradient>
<linearGradient id="paint2_linear_147_21" x1="9.3416" y1="18.5797" x2="16.6932" y2="16.9184" gradientUnits="userSpaceOnUse">
<stop stop-color="white"/>
</linearGradient>
<linearGradient id="paint3_linear_147_21" x1="9.50751" y1="0.804079" x2="15.7924" y2="2.74432" gradientUnits="userSpaceOnUse">
<stop offset="0.06" stop-color="white"/>
</linearGradient>
<linearGradient id="paint4_linear_147_21" x1="3.15682" y1="16.4466" x2="9.99842" y2="19.0034" gradientUnits="userSpaceOnUse">
<stop offset="0.98" stop-color="white"/>
</linearGradient>
<linearGradient id="paint5_linear_147_21" x1="0.816443" y1="10.262" x2="3.56198" y2="3.11845" gradientUnits="userSpaceOnUse">
<stop offset="1" stop-color="white"/>
</linearGradient>
</defs>
</svg>
