<svg width="20" height="20" viewBox="0 0 20 20" fill="none" xmlns="http://www.w3.org/2000/svg">
<g clip-path="url(#clip0_129_49)">
<path d="M19.8287 0.172624C19.663 0.00684293 19.4143 -0.0441337 19.1968 0.0428977L0.368664 7.57408C0.153235 7.66025 0.00897729 7.86541 0.000696059 8.09732C-0.00754611 8.3292 0.121829 8.54408 0.330578 8.64533L7.7551 12.2462L11.3559 19.6707C11.4542 19.8732 11.6592 20.001 11.883 20.001C11.89 20.001 11.897 20.0008 11.904 20.0006C12.1358 19.9923 12.341 19.8481 12.4272 19.6326L19.9584 0.804578C20.0454 0.586922 19.9944 0.338367 19.8287 0.172624ZM2.03522 8.16963L16.9815 2.19114L8.07416 11.0985L2.03522 8.16963ZM11.8317 17.9661L8.90279 11.9271L17.8102 3.01974L11.8317 17.9661Z" fill="white"/>
</g>
<defs>
<clipPath id="clip0_129_49">
<rect width="20" height="20" fill="white"/>
</clipPath>
</defs>
</svg>
