<svg width="20" height="20" viewBox="0 0 20 20" fill="none" xmlns="http://www.w3.org/2000/svg">
<path fill-rule="evenodd" clip-rule="evenodd" d="M1.40597 1.40589C0.0421423 2.76972 0.00134167 4.9399 0.00012207 9.19988C3.81772 9.19986 6.20124 7.5609 8.29198 6.12324C9.92533 5.00014 11.38 3.99988 13.2001 3.99988C15.9092 3.99988 18.2746 5.91536 19.5289 6.93104C19.7057 7.07426 19.8605 7.1996 19.9911 7.29914C19.9515 4.26188 19.7384 2.5501 18.5942 1.40589C17.1883 6.67572e-07 14.9256 4.65568e-07 10.4001 6.9938e-08L9.60009 0C5.0746 1.13025e-06 2.81186 9.53674e-07 1.40597 1.40589ZM9.0121 19.9999C9.20374 20 9.3997 20 9.60011 20H10.4001H10.4001C10.6005 20 10.7964 20 10.988 19.9999H9.0121Z" fill="#0077FF"/>
<path fill-rule="evenodd" clip-rule="evenodd" d="M3.82011e-05 9.2C3.81764 9.19998 6.20116 7.56102 8.29191 6.12336C9.92523 5.00026 11.3799 4 13.2 4C15.9091 4 18.2745 5.91548 19.5288 6.93116C19.7057 7.07438 19.8604 7.19972 19.991 7.29926C20 7.99386 20 8.7578 20 9.60012V10.4001C20 14.9256 20 17.1883 18.5941 18.5942C17.2505 19.9379 15.1242 19.9974 10.9878 20H9.01217C4.87586 19.9974 2.74954 19.9379 1.40589 18.5942C-5.72205e-07 17.1883 -3.99574e-07 14.9256 4.26558e-10 10.4001L2.03083e-07 9.60012C2.03083e-07 9.46474 2.01044e-07 9.33138 3.82011e-05 9.2Z" fill="#F45FFF"/>
<path d="M15.5001 10.195C15.5001 9.70075 15.9058 9.30005 16.4001 9.30005C16.8944 9.30005 17.3001 9.70075 17.3001 10.195V13.805C17.3001 14.2993 16.8944 14.7 16.4001 14.7C15.9058 14.7 15.5001 14.2993 15.5001 13.805V10.195Z" fill="white"/>
<path d="M12.3002 7.895C12.3002 7.4007 12.7059 7 13.2002 7C13.6945 7 14.1002 7.4007 14.1002 7.895V16.105C14.1002 16.5993 13.6945 17 13.2002 17C12.7059 17 12.3002 16.5993 12.3002 16.105V7.895Z" fill="white"/>
<path d="M9.10022 10.195C9.10022 9.70075 9.50592 9.30005 10.0002 9.30005C10.4945 9.30005 10.9002 9.70075 10.9002 10.195V13.805C10.9002 14.2993 10.4945 14.7 10.0002 14.7C9.50592 14.7 9.10022 14.2993 9.10022 13.805V10.195Z" fill="white"/>
<path d="M5.89978 11.4951C5.89978 11.0008 6.3055 10.6001 6.79978 10.6001C7.29408 10.6001 7.69978 11.0008 7.69978 11.4951V12.5051C7.69978 12.9994 7.29408 13.4001 6.79978 13.4001C6.3055 13.4001 5.89978 12.9994 5.89978 12.5051V11.4951Z" fill="white"/>
<path d="M2.69983 11.4951C2.69983 11.0008 3.10555 10.6001 3.59983 10.6001C4.09413 10.6001 4.49983 11.0008 4.49983 11.4951V12.5051C4.49983 12.9994 4.09413 13.4001 3.59983 13.4001C3.10555 13.4001 2.69983 12.9994 2.69983 12.5051V11.4951Z" fill="white"/>
</svg>
