<svg width="20" height="20" viewBox="0 0 20 20" fill="none" xmlns="http://www.w3.org/2000/svg">
<path fill-rule="evenodd" clip-rule="evenodd" d="M9.6 0.55997H10.4C12.6786 0.55997 14.3312 0.561197 15.5923 0.730716C16.8373 0.898122 17.6166 1.22031 18.1981 1.80184C18.7797 2.38342 19.1019 3.1627 19.2692 4.40772C19.3613 5.09247 19.4037 5.89257 19.4233 6.84569C18.1448 5.81194 15.8349 3.99988 13.2 3.99988C11.3799 3.99988 9.92523 5.00015 8.29193 6.12328C6.3053 7.48929 4.05443 9.03711 0.560067 9.18791C0.560803 7.12025 0.571606 5.5915 0.730762 4.40772C0.89812 3.1627 1.22031 2.38342 1.80189 1.80184C2.38341 1.22031 3.16269 0.898122 4.40771 0.730716C5.66883 0.561197 7.32143 0.55997 9.6 0.55997ZM0 10.553C0 10.5023 0 10.4513 0 10.4V9.60002C0 5.07449 -5.85402e-07 2.81178 1.40589 1.40589C2.81177 -5.85404e-07 5.07453 0 9.6 0H10.4C14.9255 0 17.1882 -5.85404e-07 18.5941 1.40589C19.7383 2.55009 19.9513 4.26187 19.9909 7.29915C20 7.99377 20 8.75768 20 9.59997V10.4V10.4C20 14.3598 20 16.5872 19.0582 18.024C18.9852 18.1353 18.9066 18.2419 18.8219 18.3442C18.7504 18.4304 18.6745 18.5137 18.5941 18.5941C17.1882 20 14.9255 20 10.4 20H9.6C6.20591 20 4.08458 20 2.64294 19.4069C2.16238 19.2092 1.75735 18.9456 1.40589 18.5941C1.05443 18.2426 0.79082 17.8376 0.593115 17.3571C0.0089861 15.9372 0.000147321 13.8581 0 10.553ZM15.4999 10.195C15.4999 9.70069 15.9056 9.29998 16.3999 9.29998C16.8942 9.29998 17.2999 9.70069 17.2999 10.195V13.805C17.2999 14.2993 16.8942 14.7 16.3999 14.7C15.9056 14.7 15.4999 14.2993 15.4999 13.805V10.195ZM13.2004 7.00009C12.7061 7.00009 12.3004 7.4008 12.3004 7.89507V16.1051C12.3004 16.5994 12.7061 17.0001 13.2004 17.0001C13.6947 17.0001 14.1004 16.5994 14.1004 16.1051V7.89507C14.1004 7.4008 13.6947 7.00009 13.2004 7.00009ZM9.10033 10.195C9.10033 9.70069 9.50606 9.29998 10.0004 9.29998C10.4946 9.29998 10.9004 9.70069 10.9004 10.195V13.805C10.9004 14.2993 10.4946 14.7 10.0004 14.7C9.50606 14.7 9.10033 14.2993 9.10033 13.805V10.195ZM6.79967 10.5999C6.30535 10.5999 5.89968 11.0007 5.89968 11.495V12.505C5.89968 12.9993 6.30535 13.3999 6.79967 13.3999C7.29398 13.3999 7.69965 12.9993 7.69965 12.505V11.495C7.69965 11.0007 7.29398 10.5999 6.79967 10.5999ZM2.69961 12.505V11.495C2.69961 11.0007 3.10529 10.5999 3.5996 10.5999C4.09391 10.5999 4.49959 11.0007 4.49959 11.495V12.505C4.49959 12.9992 4.09391 13.3999 3.5996 13.3999C3.10529 13.3999 2.69961 12.9993 2.69961 12.505Z" fill="white"/>
</svg>
