<svg width="20" height="20" viewBox="0 0 20 20" fill="none" xmlns="http://www.w3.org/2000/svg">
<path d="M4.02456 1.92602C5.49973 0.834608 7.25282 0.171202 9.07006 0V3.01743C7.8942 3.16723 6.7611 3.61663 5.79903 4.34424C4.6018 5.24305 3.70387 6.50566 3.27628 7.93948C2.8487 9.37329 2.87008 10.9141 3.38318 12.3265C3.89628 13.7389 4.83696 14.9587 6.07696 15.7934C7.31696 16.628 8.81351 17.0346 10.3101 16.9704C11.8066 16.9062 13.239 16.3498 14.4149 15.4081C15.5694 14.4665 16.4032 13.1611 16.7666 11.7059C17.0232 10.7001 17.0445 9.63009 16.8521 8.62428L19.3963 6.59126V6.56986C20.0804 8.45308 20.1873 10.5075 19.6956 12.4549C19.1611 14.5307 17.9852 16.3926 16.3176 17.7408C14.6501 19.089 12.5976 19.8808 10.4597 19.9878C8.32179 20.0948 6.20524 19.4956 4.43076 18.2972C2.65628 17.0988 1.30939 15.3653 0.582492 13.3537C-0.144403 11.3421 -0.187164 9.13789 0.432835 7.08347C1.05283 5.02905 2.31422 3.21003 4.02456 1.92602Z" fill="white"/>
<path d="M17.4722 3.33845V3.35985L15.7832 6.05628C15.1632 5.13607 14.3508 4.38706 13.3673 3.85205V9.97251C13.3673 11.8557 11.8494 13.3751 9.96803 13.3751C8.08665 13.3751 6.56873 11.8557 6.56873 9.97251C6.56873 8.08929 8.08665 6.56988 9.96803 6.56988C10.6735 6.56988 11.3149 6.78388 11.8708 7.14769V0.128418C14.0942 0.556422 16.0397 1.71203 17.4722 3.33845Z" fill="white"/>
</svg>
