<svg width="16" height="16" viewBox="0 0 16 16" fill="none" xmlns="http://www.w3.org/2000/svg">
    <path d="M3.00312 1.41235C2.49687 1.60038 2.06875 1.85108 1.64062 2.25996C1.2125 2.66586 0.949998 3.07773 0.753123 3.55824C0.562498 4.02383 0.434373 4.55807 0.396873 5.34002C0.359373 6.12197 0.349998 6.37268 0.349998 8.36636C0.349998 10.36 0.359373 10.6107 0.396873 11.3927C0.434373 12.1746 0.565623 12.7089 0.753123 13.1745C0.949998 13.658 1.2125 14.0669 1.64062 14.4757C2.06875 14.8846 2.49687 15.1353 3.00312 15.3233C3.49062 15.5054 4.05 15.6278 4.86875 15.6636C5.6875 15.6994 5.95 15.7084 8.03749 15.7084C10.125 15.7084 10.3875 15.6994 11.2062 15.6636C12.025 15.6278 12.5844 15.5024 13.0719 15.3233C13.5781 15.1353 14.0062 14.8846 14.4344 14.4757C14.8625 14.0669 15.125 13.658 15.3219 13.1745C15.5125 12.7089 15.6406 12.1746 15.6781 11.3927C15.7156 10.6107 15.725 10.36 15.725 8.36636C15.725 6.37268 15.7156 6.12197 15.6781 5.34002C15.6406 4.55807 15.5094 4.02383 15.3219 3.55824C15.125 3.07773 14.8625 2.66586 14.4375 2.25996C14.0094 1.85108 13.5812 1.60038 13.075 1.41235C12.5875 1.23029 12.0281 1.10793 11.2094 1.07211C10.3906 1.0363 10.1281 1.02734 8.04062 1.02734C5.95312 1.02734 5.69062 1.0363 4.87187 1.07211C4.05 1.10494 3.49062 1.23029 3.00312 1.41235ZM11.1437 2.39128C11.8937 2.42411 12.3 2.5435 12.5719 2.64497C12.9312 2.77928 13.1875 2.93746 13.4562 3.19413C13.725 3.4508 13.8906 3.69553 14.0312 4.03876C14.1375 4.29841 14.2625 4.6864 14.2969 5.4027C14.3344 6.1757 14.3406 6.40849 14.3406 8.36934C14.3406 10.3302 14.3312 10.563 14.2969 11.336C14.2625 12.0523 14.1375 12.4403 14.0312 12.6999C13.8906 13.0432 13.725 13.2879 13.4562 13.5446C13.1875 13.8012 12.9312 13.9594 12.5719 14.0937C12.3 14.1952 11.8937 14.3146 11.1437 14.3474C10.3344 14.3832 10.0906 14.3892 8.03749 14.3892C5.98437 14.3892 5.74062 14.3802 4.93125 14.3474C4.18125 14.3146 3.775 14.1952 3.50312 14.0937C3.14375 13.9594 2.8875 13.8012 2.61875 13.5446C2.35 13.2879 2.18437 13.0432 2.04375 12.6999C1.9375 12.4403 1.8125 12.0523 1.77812 11.336C1.74062 10.563 1.73437 10.3302 1.73437 8.36934C1.73437 6.40849 1.74375 6.1757 1.77812 5.4027C1.8125 4.6864 1.9375 4.29841 2.04375 4.03876C2.18437 3.69553 2.35 3.4508 2.61875 3.19413C2.8875 2.93746 3.14375 2.77928 3.50312 2.64497C3.775 2.5435 4.18125 2.42411 4.93125 2.39128C5.74062 2.35547 5.98437 2.3495 8.03749 2.3495C10.0906 2.3495 10.3344 2.35547 11.1437 2.39128Z" fill="url(#paint0_radial_189_328)"/>
    <path d="M4.09063 8.3691C4.09063 10.4523 5.85938 12.1386 8.0375 12.1386C10.2156 12.1386 11.9844 10.4493 11.9844 8.3691C11.9844 6.28886 10.2188 4.59961 8.0375 4.59961C5.85625 4.59961 4.09063 6.28588 4.09063 8.3691ZM10.6 8.3691C10.6 9.7211 9.45313 10.8164 8.0375 10.8164C6.62188 10.8164 5.475 9.7211 5.475 8.3691C5.475 7.0171 6.62188 5.92177 8.0375 5.92177C9.45313 5.92177 10.6 7.0171 10.6 8.3691Z" fill="url(#paint1_radial_189_328)"/>
    <path d="M12.1437 5.3312C12.6529 5.3312 13.0656 4.93701 13.0656 4.45075C13.0656 3.9645 12.6529 3.57031 12.1437 3.57031C11.6346 3.57031 11.2219 3.9645 11.2219 4.45075C11.2219 4.93701 11.6346 5.3312 12.1437 5.3312Z" fill="#654C9F"/>
    <defs>
        <radialGradient id="paint0_radial_189_328" cx="0" cy="0" r="1" gradientUnits="userSpaceOnUse" gradientTransform="translate(0.629747 14.3642) rotate(-2.86549) scale(22.2259 18.0471)">
            <stop stop-color="#FED576"/>
            <stop offset="0.2634" stop-color="#F47133"/>
            <stop offset="0.6091" stop-color="#BC3081"/>
            <stop offset="1" stop-color="#4C63D2"/>
        </radialGradient>
        <radialGradient id="paint1_radial_189_328" cx="0" cy="0" r="1" gradientUnits="userSpaceOnUse" gradientTransform="translate(4.23379 11.4473) rotate(-2.86548) scale(11.4133 9.26741)">
            <stop stop-color="#FED576"/>
            <stop offset="0.2634" stop-color="#F47133"/>
            <stop offset="0.6091" stop-color="#BC3081"/>
            <stop offset="1" stop-color="#4C63D2"/>
        </radialGradient>
    </defs>
</svg>
