<svg width="16" height="16" viewBox="0 0 16 16" fill="none" xmlns="http://www.w3.org/2000/svg">
<path d="M3.00312 0.724903C2.49687 0.921778 2.06875 1.18428 1.64062 1.6124C1.2125 2.0374 0.949998 2.46865 0.753123 2.97178C0.562498 3.45928 0.434373 4.01865 0.396873 4.83741C0.359373 5.65616 0.349998 5.91866 0.349998 8.00616C0.349998 10.0937 0.359373 10.3562 0.396873 11.1749C0.434373 11.9937 0.565623 12.553 0.753123 13.0405C0.949998 13.5468 1.2125 13.9749 1.64062 14.403C2.06875 14.8312 2.49687 15.0937 3.00312 15.2905C3.49062 15.4812 4.05 15.6093 4.86875 15.6468C5.6875 15.6843 5.95 15.6937 8.03749 15.6937C10.125 15.6937 10.3875 15.6843 11.2062 15.6468C12.025 15.6093 12.5844 15.478 13.0719 15.2905C13.5781 15.0937 14.0062 14.8312 14.4344 14.403C14.8625 13.9749 15.125 13.5468 15.3219 13.0405C15.5125 12.553 15.6406 11.9937 15.6781 11.1749C15.7156 10.3562 15.725 10.0937 15.725 8.00616C15.725 5.91866 15.7156 5.65616 15.6781 4.83741C15.6406 4.01865 15.5094 3.45928 15.3219 2.97178C15.125 2.46865 14.8625 2.0374 14.4375 1.6124C14.0094 1.18428 13.5812 0.921778 13.075 0.724903C12.5875 0.534277 12.0281 0.406152 11.2094 0.368652C10.3906 0.331152 10.1281 0.321777 8.04062 0.321777C5.95312 0.321777 5.69062 0.331152 4.87187 0.368652C4.05 0.403027 3.49062 0.534277 3.00312 0.724903ZM11.1437 1.7499C11.8937 1.78428 12.3 1.90928 12.5719 2.01553C12.9312 2.15615 13.1875 2.32178 13.4562 2.59053C13.725 2.85928 13.8906 3.11553 14.0312 3.4749C14.1375 3.74678 14.2625 4.15303 14.2969 4.90303C14.3344 5.71241 14.3406 5.95616 14.3406 8.00928C14.3406 10.0624 14.3312 10.3062 14.2969 11.1155C14.2625 11.8655 14.1375 12.2718 14.0312 12.5437C13.8906 12.903 13.725 13.1593 13.4562 13.428C13.1875 13.6968 12.9312 13.8624 12.5719 14.003C12.3 14.1093 11.8937 14.2343 11.1437 14.2687C10.3344 14.3062 10.0906 14.3124 8.03749 14.3124C5.98437 14.3124 5.74062 14.303 4.93125 14.2687C4.18125 14.2343 3.775 14.1093 3.50312 14.003C3.14375 13.8624 2.8875 13.6968 2.61875 13.428C2.35 13.1593 2.18437 12.903 2.04375 12.5437C1.9375 12.2718 1.8125 11.8655 1.77812 11.1155C1.74062 10.3062 1.73437 10.0624 1.73437 8.00928C1.73437 5.95616 1.74375 5.71241 1.77812 4.90303C1.8125 4.15303 1.9375 3.74678 2.04375 3.4749C2.18437 3.11553 2.35 2.85928 2.61875 2.59053C2.8875 2.32178 3.14375 2.15615 3.50312 2.01553C3.775 1.90928 4.18125 1.78428 4.93125 1.7499C5.74062 1.7124 5.98437 1.70615 8.03749 1.70615C10.0906 1.70615 10.3344 1.7124 11.1437 1.7499Z" fill="url(#paint0_radial_228_1584)"/>
<path d="M4.09062 8.00938C4.09062 10.1906 5.85937 11.9563 8.0375 11.9563C10.2156 11.9563 11.9844 10.1875 11.9844 8.00938C11.9844 5.83125 10.2187 4.0625 8.0375 4.0625C5.85625 4.0625 4.09062 5.82812 4.09062 8.00938ZM10.6 8.00938C10.6 9.425 9.45312 10.5719 8.0375 10.5719C6.62187 10.5719 5.475 9.425 5.475 8.00938C5.475 6.59375 6.62187 5.44688 8.0375 5.44688C9.45312 5.44688 10.6 6.59375 10.6 8.00938Z" fill="url(#paint1_radial_228_1584)"/>
<path d="M12.1437 4.82812C12.6529 4.82812 13.0656 4.41539 13.0656 3.90625C13.0656 3.39711 12.6529 2.98438 12.1437 2.98438C11.6346 2.98438 11.2219 3.39711 11.2219 3.90625C11.2219 4.41539 11.6346 4.82812 12.1437 4.82812Z" fill="white"/>
<defs>
<radialGradient id="paint0_radial_228_1584" cx="0" cy="0" r="1" gradientUnits="userSpaceOnUse" gradientTransform="translate(0.629747 14.2863) rotate(-3.00009) scale(22.2286 18.8941)">
<stop stop-color="white"/>
</radialGradient>
<radialGradient id="paint1_radial_228_1584" cx="0" cy="0" r="1" gradientUnits="userSpaceOnUse" gradientTransform="translate(4.23379 11.2324) rotate(-3.00009) scale(11.4147 9.70235)">
<stop stop-color="white"/>
</radialGradient>
</defs>
</svg>
