<svg width="16" height="16" viewBox="0 0 16 16" fill="none" xmlns="http://www.w3.org/2000/svg">
    <g clip-path="url(#clip0_189_346)">
        <path d="M15.996 16.0005V15.9999H16V10.3956C16 7.65394 15.382 5.54199 12.026 5.54199C10.4127 5.54199 9.33003 6.38754 8.88803 7.18915H8.84136V5.79795H5.65936V15.9999H8.9727V10.9482C8.9727 9.61817 9.2367 8.33203 10.9614 8.33203C12.6607 8.33203 12.686 9.84993 12.686 11.0336V16.0005H15.996Z" fill="#0A66C2"/>
        <path d="M0.263977 5.79883H3.58131V16.0007H0.263977V5.79883Z" fill="#0A66C2"/>
        <path d="M1.92133 0.719727C0.860667 0.719727 0 1.54171 0 2.55471C0 3.5677 0.860667 4.40688 1.92133 4.40688C2.982 4.40688 3.84267 3.5677 3.84267 2.55471C3.842 1.54171 2.98133 0.719727 1.92133 0.719727V0.719727Z" fill="#0A66C2"/>
    </g>
    <defs>
        <clipPath id="clip0_189_346">
            <rect width="16" height="15.2809" fill="white" transform="translate(0 0.719727)"/>
        </clipPath>
    </defs>
</svg>

