<svg width="16" height="16" viewBox="0 0 16 16" fill="none" xmlns="http://www.w3.org/2000/svg">
<g clip-path="url(#clip0_228_1561)">
<path d="M15.996 16V15.9993H16V10.1313C16 7.26065 15.382 5.04932 12.026 5.04932C10.4127 5.04932 9.33004 5.93465 8.88804 6.77398H8.84137V5.31732H5.65937V15.9993H8.9727V10.71C8.9727 9.31732 9.2367 7.97065 10.9614 7.97065C12.6607 7.97065 12.686 9.55998 12.686 10.7993V16H15.996Z" fill="white"/>
<path d="M0.263977 5.31787H3.58131V15.9999H0.263977V5.31787Z" fill="white"/>
<path d="M1.92133 0C0.860667 0 0 0.860667 0 1.92133C0 2.982 0.860667 3.86067 1.92133 3.86067C2.982 3.86067 3.84267 2.982 3.84267 1.92133C3.842 0.860667 2.98133 0 1.92133 0V0Z" fill="white"/>
</g>
<defs>
<clipPath id="clip0_228_1561">
<rect width="16" height="16" fill="white"/>
</clipPath>
</defs>
</svg>
