<svg width="16" height="16" viewBox="0 0 16 16" fill="none" xmlns="http://www.w3.org/2000/svg">
<path d="M11.8107 13.8505L8.48 11.4106L6.61334 13.1625C6.50667 13.2479 6.39734 13.2906 6.28267 13.2906C6.024 13.2906 5.85067 13.1812 5.76534 12.9599L4.44533 8.96788L1.17067 7.94922C0.970667 7.89322 0.856 7.74922 0.826667 7.51989C0.826667 7.29055 0.941334 7.13322 1.17067 7.04522C10.1307 3.69322 14.64 2.01855 14.6987 2.01855C14.8027 2.01855 14.912 2.06655 15.0213 2.16255C15.1307 2.25855 15.1813 2.38389 15.1733 2.53589L12.8907 13.4212C12.8133 13.7945 12.5893 13.9812 12.216 13.9812C12.0693 13.9812 11.936 13.9385 11.8107 13.8505ZM6.44267 9.85855C10.5387 6.16255 12.592 4.30389 12.5947 4.27989C12.6 4.25589 12.6027 4.23989 12.6027 4.22922C12.6027 4.14389 12.5413 4.10122 12.416 4.10122C12.3867 4.10122 9.99467 5.62389 5.23733 8.66655L6.24 11.9572L6.44267 9.85855Z" fill="white"/>
</svg>
