<svg width="16" height="16" viewBox="0 0 16 16" fill="none" xmlns="http://www.w3.org/2000/svg">
    <path d="M11.8107 13.9477L8.48 11.6173L6.61334 13.2906C6.50667 13.3721 6.39734 13.4128 6.28267 13.4128C6.024 13.4128 5.85067 13.3084 5.76534 13.097L4.44534 9.28446L1.17067 8.31158C0.970668 8.2581 0.856001 8.12057 0.826668 7.90154C0.826668 7.68251 0.941335 7.53225 1.17067 7.44821C10.1307 4.24686 14.64 2.64746 14.6987 2.64746C14.8027 2.64746 14.912 2.6933 15.0213 2.78499C15.1307 2.87667 15.1813 2.99637 15.1733 3.14154L12.8907 13.5376C12.8133 13.8942 12.5893 14.0725 12.216 14.0725C12.0693 14.0725 11.936 14.0317 11.8107 13.9477ZM6.44267 10.1351C10.5387 6.60521 12.592 4.83008 12.5947 4.80716C12.6 4.78424 12.6027 4.76896 12.6027 4.75877C12.6027 4.67727 12.5413 4.63652 12.416 4.63652C12.3867 4.63652 9.99467 6.09076 5.23734 8.99667L6.24 12.1394L6.44267 10.1351Z" fill="#2CA5E0"/>
</svg>
