<svg width="16" height="14" viewBox="0 0 16 14" fill="none" xmlns="http://www.w3.org/2000/svg">
<g clip-path="url(#clip0_228_1594)">
<path d="M16 1.59052C15.4113 1.8516 14.7787 2.02805 14.1146 2.10741C14.7924 1.70113 15.3129 1.05783 15.558 0.291337C14.9237 0.667474 14.2212 0.940666 13.4735 1.08791C12.8747 0.449938 12.0216 0.0512695 11.0774 0.0512695C9.26454 0.0512695 7.79475 1.52099 7.79475 3.33379C7.79475 3.59106 7.82384 3.84161 7.87979 4.08185C5.15161 3.94496 2.73286 2.63811 1.11384 0.65214C0.831281 1.13696 0.669403 1.70084 0.669403 2.30241C0.669403 3.44124 1.24897 4.44599 2.12976 5.03463C1.59163 5.0176 1.08551 4.86994 0.642891 4.62408C0.642657 4.63777 0.642657 4.65153 0.642657 4.66534C0.642657 6.2558 1.77417 7.58255 3.27585 7.88407C3.00037 7.9591 2.71038 7.99919 2.41097 7.99919C2.19947 7.99919 1.99381 7.97864 1.79342 7.94031C2.21111 9.24447 3.42339 10.1935 4.85981 10.22C3.73638 11.1004 2.32096 11.6252 0.783057 11.6252C0.518117 11.6252 0.256805 11.6097 0 11.5794C1.45269 12.5107 3.17817 13.0541 5.03193 13.0541C11.0698 13.0541 14.3715 8.05221 14.3715 3.71443C14.3715 3.5721 14.3683 3.43053 14.362 3.28978C15.0033 2.82697 15.5599 2.24881 16 1.59052Z" fill="white"/>
</g>
<defs>
<clipPath id="clip0_228_1594">
<rect width="16" height="13.0625" fill="white"/>
</clipPath>
</defs>
</svg>
