<svg width="20" height="16" viewBox="0 0 20 16" fill="none" xmlns="http://www.w3.org/2000/svg">
    <g clip-path="url(#clip0_462_35)">
        <path d="M19.5981 2.58094C18.877 2.88635 18.1021 3.09277 17.2887 3.18561C18.1189 2.71033 18.7564 1.95778 19.0566 1.06111C18.2798 1.50113 17.4193 1.82072 16.5034 1.99297C15.7699 1.24665 14.725 0.780273 13.5686 0.780273C11.3479 0.780273 9.54764 2.4996 9.54764 4.62026C9.54764 4.92123 9.58327 5.21432 9.6518 5.49537C6.31011 5.33523 3.34742 3.80644 1.36432 1.48319C1.01822 2.05034 0.819938 2.70999 0.819938 3.41373C0.819938 4.74596 1.52984 5.92135 2.60871 6.60996C1.94956 6.59003 1.32962 6.4173 0.787465 6.12968C0.787178 6.1457 0.787178 6.16179 0.787178 6.17795C0.787178 8.03852 2.17314 9.59059 4.01252 9.94332C3.6751 10.0311 3.3199 10.078 2.95315 10.078C2.69408 10.078 2.44218 10.054 2.19673 10.0091C2.70835 11.5348 4.19324 12.645 5.95269 12.676C4.57661 13.7059 2.8429 14.3198 0.959151 14.3198C0.634631 14.3198 0.314556 14.3016 0 14.2662C1.77938 15.3557 3.89288 15.9914 6.16352 15.9914C13.5592 15.9914 17.6034 10.14 17.6034 5.06555C17.6034 4.89905 17.5995 4.73343 17.5918 4.56878C18.3773 4.02737 19.059 3.35102 19.5981 2.58094Z" fill="#55ACEE"/>
    </g>
    <defs>
        <clipPath id="clip0_462_35">
            <rect width="19.5981" height="15.2809" fill="white" transform="translate(0 0.719727)"/>
        </clipPath>
    </defs>
</svg>

