<svg width="38" height="37" viewBox="0 0 38 37" fill="none" xmlns="http://www.w3.org/2000/svg">
<path fill-rule="evenodd" clip-rule="evenodd" d="M38 0H0V37H38V0ZM31.9936 31.999V32H26.6148V23.549C26.6148 21.535 26.5736 18.9524 23.8122 18.9524C21.0096 18.9524 20.5806 21.1407 20.5806 23.4038V31.999H15.1965V14.6407H20.3672V17.0078H20.4431C21.1613 15.6439 22.9206 14.2052 25.5423 14.2052C30.9958 14.2052 32.0001 17.7986 32.0001 22.4635V31.999H31.9936ZM6.42897 14.6417H11.8196V32H6.42897V14.6417ZM6 9.12217C6 7.39858 7.39858 6 9.12217 6C10.8447 6 12.2432 7.39858 12.2443 9.12217C12.2443 10.8457 10.8457 12.2736 9.12217 12.2736C7.39858 12.2736 6 10.8457 6 9.12217Z" fill="#01C497"/>
</svg>
