<svg width="146" height="15" viewBox="0 0 146 15" fill="none" xmlns="http://www.w3.org/2000/svg">
<g clip-path="url(#clip0_153_100)">
<path d="M3.8398 0.282959H0V11.0613L3.8398 10.838V0.282959Z" fill="white"/>
<path d="M4.64281 11.1653V14.4553H0.803009V11.3886L4.64281 11.1653Z" fill="white"/>
<path d="M10.3368 6.74399L13.2422 10.302L19.5056 9.95962V0.282959H15.7388V7.65211L9.7382 0.282959H6.58459V10.6891L10.3368 10.4658V6.74399Z" fill="#5C5C5C"/>
<path d="M11.1398 10.7932V14.4555H7.37301V11.0165L11.1398 10.7932Z" fill="#5C5C5C"/>
<path d="M20.3086 10.2869V14.4553H17.1404L14.0306 10.6293L20.3086 10.2869Z" fill="#5C5C5C"/>
<path d="M25.3018 4.28751C25.3018 3.58781 25.8858 3.03698 27.4918 3.03698C28.6744 3.03698 29.9592 3.39428 31.2586 4.10886L32.4412 1.20586C31.1126 0.416841 29.2876 0 27.521 0C23.4914 0 21.5058 2.02466 21.5058 4.49593C21.5058 8.82809 26.9808 8.38148 28.7182 9.43847L32.9668 9.20027C32.2368 4.9872 25.3018 6.29727 25.3018 4.28751Z" fill="#5C5C5C"/>
<path d="M33.8136 10.2571C33.8136 12.6688 31.828 14.7232 27.7984 14.7232C25.5646 14.7232 23.36 14.1128 22.0752 13.2047L23.3308 10.3166C24.528 11.1205 26.2362 11.6862 27.813 11.6862C29.4044 11.6862 30.0176 11.2396 30.0176 10.5548C30.0176 10.2124 29.8278 9.95931 29.492 9.75089L33.7406 9.5127C33.7844 9.75089 33.8136 9.98909 33.8136 10.2571Z" fill="#5C5C5C"/>
<path d="M37.8578 4.28751C37.8578 3.58781 38.4418 3.03698 40.0478 3.03698C41.2304 3.03698 42.5152 3.39428 43.8146 4.10886L44.9972 1.20586C43.6686 0.416841 41.8436 0 40.077 0C36.0474 0 34.0618 2.02466 34.0618 4.49593C34.0618 7.75622 37.157 8.30704 39.42 8.82809L45.3184 8.50058C43.9752 5.13608 37.8578 6.17818 37.8578 4.28751Z" fill="#5C5C5C"/>
<path d="M46.3696 10.2573C46.3696 12.669 44.384 14.7234 40.3544 14.7234C38.1206 14.7234 35.916 14.1131 34.6312 13.205L35.8868 10.3168C37.084 11.1208 38.7922 11.6865 40.369 11.6865C41.9604 11.6865 42.5736 11.2398 42.5736 10.555C42.5736 9.75113 41.537 9.45339 40.2084 9.15564L46.1068 8.82812C46.2674 9.23008 46.3696 9.70647 46.3696 10.2573Z" fill="#5C5C5C"/>
<path d="M59.5826 5.40415C59.5826 2.23318 57.2466 0.282959 53.5528 0.282959H47.3478V8.38158L59.0862 7.71166C59.4074 7.04174 59.5826 6.2676 59.5826 5.40415ZM54.1076 7.74143H51.976V3.69212H54.1076C55.699 3.69212 56.4874 4.45137 56.4874 5.73167C56.502 6.99708 55.699 7.74143 54.1076 7.74143Z" fill="#5C5C5C"/>
<path d="M59.8746 8.03906C58.9986 9.81064 57.0422 10.8379 54.3412 10.8379H51.976V14.4554H48.1362V8.70899L59.8746 8.03906Z" fill="#5C5C5C"/>
<path d="M65.2766 0.282959H61.4368V7.57767L65.2766 7.35437V0.282959Z" fill="white"/>
<path d="M66.0796 7.68188V14.4555H62.2398V7.90519L66.0796 7.68188Z" fill="white"/>
<path d="M71.8612 3.3646H73.9928C75.5842 3.3646 76.3872 4.12385 76.3872 5.40415C76.3872 5.95497 76.2266 6.41647 75.92 6.75888L80.154 6.52068C80.227 6.16339 80.2562 5.8061 80.2562 5.40415C80.2562 2.23318 77.9202 0.282959 74.2264 0.282959H68.0214V7.20549L71.8612 6.98219V3.3646Z" fill="white"/>
<path d="M81.3366 14.4555H77.2194L74.752 10.7784H72.6496V14.4555H68.8098V7.53295L72.6496 7.30964V7.74137H74.7812C75.6718 7.74137 76.3142 7.50317 76.7084 7.07145L80.9424 6.83325C80.6504 8.30708 79.7598 9.42362 78.3874 10.0935L81.3366 14.4555Z" fill="white"/>
<path d="M88.6074 4.10896L89.352 5.99963L92.929 5.79121L90.5346 0.282959H86.7532L84.1398 6.28249L87.8336 6.07407L88.6074 4.10896Z" fill="white"/>
<path d="M97.3528 14.4557H93.3524L92.2866 11.7611H86.5342L85.4684 14.4557H81.5556L84.9428 6.61017L88.6366 6.40175L87.6584 8.87302H91.1624L90.155 6.32732L93.732 6.1189L97.3528 14.4557Z" fill="white"/>
<path d="M103.689 3.37949H107.836V0.282959H95.6738V3.37949H99.8494V5.40415L103.689 5.18084V3.37949Z" fill="white"/>
<path d="M104.492 5.5083V14.4555H100.652V5.73161L104.492 5.5083Z" fill="white"/>
<path d="M113.121 0.282959H109.281V4.86821L113.121 4.6449V0.282959Z" fill="white"/>
<path d="M113.924 4.97217V14.4553H110.084V5.19548L113.924 4.97217Z" fill="white"/>
<path d="M122.713 3.2454C123.56 3.2454 124.319 3.51337 124.932 3.97488L129.4 3.72179C128.173 1.45894 125.706 0 122.713 0C119.384 0 116.727 1.78646 115.661 4.49593L120.187 4.24285C120.83 3.6027 121.72 3.2454 122.713 3.2454Z" fill="white"/>
<path d="M131.064 7.53292C131.064 11.6864 127.867 14.7383 123.516 14.7383C119.165 14.7383 115.968 11.6864 115.968 7.53292C115.968 6.56525 116.143 5.65714 116.464 4.83834L120.99 4.58526C120.289 5.28496 119.851 6.29728 119.851 7.54781C119.851 9.94464 121.457 11.5078 123.516 11.5078C125.575 11.5078 127.181 9.94464 127.181 7.54781C127.181 6.13353 126.611 5.0021 125.735 4.31729L130.203 4.06421C130.743 5.06165 131.064 6.23774 131.064 7.53292Z" fill="white"/>
<path d="M145.197 0.282959H141.43V3.03709L145.197 2.82867V0.282959Z" fill="white"/>
<path d="M135.444 0.282959H132.276V3.55814L137.853 3.24551L135.444 0.282959Z" fill="white"/>
<path d="M146 3.15625V14.4556H142.832L136.846 7.07157V14.4556H133.079V3.88572L138.656 3.57309L142.233 7.97969V3.36467L146 3.15625Z" fill="white"/>
<path d="M0.803009 11.3886L4.64281 11.1653V14.4553H0.803009V11.3886Z" fill="url(#paint0_linear_153_100)"/>
<path d="M7.37301 11.0165L11.1398 10.7932V14.4555H7.37301V11.0165Z" fill="url(#paint1_linear_153_100)"/>
<path d="M14.0306 10.6293L20.3086 10.2869V14.4553H17.1404L14.0306 10.6293Z" fill="url(#paint2_linear_153_100)"/>
<path d="M33.7552 9.5127C33.799 9.736 33.8136 9.98909 33.8136 10.2571C33.8136 12.6688 31.828 14.7232 27.7984 14.7232C25.5646 14.7232 23.36 14.1128 22.0752 13.2047L23.3308 10.3166C24.528 11.1205 26.2362 11.6862 27.813 11.6862C29.4044 11.6862 30.0176 11.2396 30.0176 10.5548C30.0176 10.2124 29.8278 9.95931 29.492 9.75089L33.7552 9.5127Z" fill="url(#paint3_linear_153_100)"/>
<path d="M46.1068 8.81274C46.2674 9.22958 46.355 9.70597 46.355 10.2568C46.355 12.6685 44.3694 14.723 40.3398 14.723C38.106 14.723 35.9014 14.1126 34.6166 13.2045L35.8722 10.3163C37.0694 11.1203 38.7776 11.686 40.3544 11.686C41.9458 11.686 42.559 11.2394 42.559 10.5545C42.559 9.75064 41.5224 9.45289 40.1938 9.15515L46.1068 8.81274Z" fill="url(#paint4_linear_153_100)"/>
<path d="M48.1362 8.70899L59.8746 8.03906C58.9986 9.81064 57.0422 10.8379 54.3412 10.8379H51.976V14.4554H48.1362V8.70899Z" fill="url(#paint5_linear_153_100)"/>
<path d="M62.2398 7.90519L66.0796 7.68188V14.4555H62.2398V7.90519Z" fill="url(#paint6_linear_153_100)"/>
<path d="M78.402 10.1084L81.3366 14.4555H77.2194L74.752 10.7784H72.6496V14.4555H68.8098V7.53295L72.6496 7.30964V7.74137H74.7812C75.6718 7.74137 76.3142 7.50317 76.7084 7.07145L80.9424 6.83325C80.665 8.32197 79.7744 9.42362 78.402 10.1084Z" fill="url(#paint7_linear_153_100)"/>
<path d="M93.732 6.1189L97.3528 14.4557H93.3524L92.2866 11.7611H86.5342L85.4684 14.4557H81.5556L84.9428 6.61017L88.6366 6.40175L87.6584 8.87302H91.1624L90.155 6.32732L93.732 6.1189Z" fill="url(#paint8_linear_153_100)"/>
<path d="M100.652 5.73161L104.492 5.5083V14.4555H100.652V5.73161Z" fill="url(#paint9_linear_153_100)"/>
<path d="M110.084 5.19548L113.924 4.97217V14.4553H110.084V5.19548Z" fill="url(#paint10_linear_153_100)"/>
<path d="M130.203 4.04956C130.758 5.06189 131.064 6.23798 131.064 7.53316C131.064 11.6867 127.867 14.7386 123.516 14.7386C119.165 14.7386 115.968 11.6867 115.968 7.53316C115.968 6.56549 116.143 5.65738 116.464 4.83858L120.99 4.5855C120.289 5.2852 119.851 6.29752 119.851 7.54805C119.851 9.94488 121.457 11.508 123.516 11.508C125.575 11.508 127.181 9.94488 127.181 7.54805C127.181 6.13377 126.611 5.00234 125.735 4.31753L130.203 4.04956Z" fill="url(#paint11_linear_153_100)"/>
<path d="M146 3.15625V14.4556H142.832L136.846 7.07157V14.4556H133.079V3.88572L138.656 3.57309L142.233 7.97969V3.36467L146 3.15625Z" fill="url(#paint12_linear_153_100)"/>
</g>
<defs>
<linearGradient id="paint0_linear_153_100" x1="2.72222" y1="14.4549" x2="2.72222" y2="11.1683" gradientUnits="userSpaceOnUse">
<stop stop-color="white" stop-opacity="0"/>
<stop offset="1"/>
</linearGradient>
<linearGradient id="paint1_linear_153_100" x1="9.26143" y1="14.455" x2="9.26143" y2="10.7996" gradientUnits="userSpaceOnUse">
<stop stop-color="white" stop-opacity="0"/>
<stop offset="1"/>
</linearGradient>
<linearGradient id="paint2_linear_153_100" x1="17.1706" y1="14.4549" x2="17.1706" y2="10.2805" gradientUnits="userSpaceOnUse">
<stop stop-color="white" stop-opacity="0"/>
<stop offset="1"/>
</linearGradient>
<linearGradient id="paint3_linear_153_100" x1="27.9404" y1="14.7322" x2="27.9404" y2="9.51841" gradientUnits="userSpaceOnUse">
<stop stop-color="white" stop-opacity="0"/>
<stop offset="1"/>
</linearGradient>
<linearGradient id="paint4_linear_153_100" x1="40.4963" y1="14.732" x2="40.4963" y2="8.81645" gradientUnits="userSpaceOnUse">
<stop stop-color="white" stop-opacity="0"/>
<stop offset="1"/>
</linearGradient>
<linearGradient id="paint5_linear_153_100" x1="54.0013" y1="14.455" x2="54.0013" y2="8.03686" gradientUnits="userSpaceOnUse">
<stop stop-color="white" stop-opacity="0"/>
<stop offset="1"/>
</linearGradient>
<linearGradient id="paint6_linear_153_100" x1="64.163" y1="14.4551" x2="64.163" y2="7.68449" gradientUnits="userSpaceOnUse">
<stop stop-color="white" stop-opacity="0"/>
<stop offset="1"/>
</linearGradient>
<linearGradient id="paint7_linear_153_100" x1="75.0785" y1="14.4551" x2="75.0785" y2="6.84074" gradientUnits="userSpaceOnUse">
<stop stop-color="white" stop-opacity="0"/>
<stop offset="1"/>
</linearGradient>
<linearGradient id="paint8_linear_153_100" x1="89.4492" y1="14.4553" x2="89.4492" y2="6.11805" gradientUnits="userSpaceOnUse">
<stop stop-color="white" stop-opacity="0"/>
<stop offset="1"/>
</linearGradient>
<linearGradient id="paint9_linear_153_100" x1="102.568" y1="14.4551" x2="102.568" y2="5.50751" gradientUnits="userSpaceOnUse">
<stop stop-color="white" stop-opacity="0"/>
<stop offset="1"/>
</linearGradient>
<linearGradient id="paint10_linear_153_100" x1="112" y1="14.4549" x2="112" y2="4.97206" gradientUnits="userSpaceOnUse">
<stop stop-color="white" stop-opacity="0"/>
<stop offset="1"/>
</linearGradient>
<linearGradient id="paint11_linear_153_100" x1="123.508" y1="14.7327" x2="123.508" y2="4.05045" gradientUnits="userSpaceOnUse">
<stop stop-color="white" stop-opacity="0"/>
<stop offset="1"/>
</linearGradient>
<linearGradient id="paint12_linear_153_100" x1="139.538" y1="14.4552" x2="139.538" y2="3.15448" gradientUnits="userSpaceOnUse">
<stop stop-color="white" stop-opacity="0"/>
<stop offset="1"/>
</linearGradient>
<clipPath id="clip0_153_100">
<rect width="146" height="14.4554" fill="white"/>
</clipPath>
</defs>
</svg>
