<svg width="112" height="44" viewBox="0 0 112 44" fill="none" xmlns="http://www.w3.org/2000/svg">
<path d="M15.2319 20.9643V15.1964C15.2319 13.1364 16.9119 11.4551 18.9951 11.4551C21.0671 11.4551 22.7583 13.1253 22.7583 15.1964V40.0161C22.7583 42.0761 21.0783 43.7574 18.9951 43.7574C16.9231 43.7574 15.2319 42.0872 15.2319 40.0161V34.7493V20.9643Z" fill="#008A7E"/>
<path d="M15.2319 20.9643V15.1964C15.2319 13.1364 16.9119 11.4551 18.9951 11.4551C21.0671 11.4551 22.7583 13.1253 22.7583 15.1964V40.0161C22.7583 42.0761 21.0783 43.7574 18.9951 43.7574C16.9231 43.7574 15.2319 42.0872 15.2319 40.0161V34.7493V20.9643Z" fill="url(#paint0_linear_102_50)"/>
<path d="M22.7472 29.8835V40.0051C22.7472 42.0651 21.0672 43.7464 18.984 43.7464C16.912 43.7464 15.2208 42.0762 15.2208 40.0051V34.2372C15.2208 32.1773 13.5408 30.4959 11.4576 30.4959H11.3792C9.3072 30.4959 7.616 32.1661 7.616 34.2372V40.0051C7.616 42.0651 5.936 43.7464 3.8528 43.7464C1.7808 43.7464 0.0895996 42.0762 0.0895996 40.0051V15.1854C0.0895996 13.1255 1.7696 11.4441 3.8528 11.4441C5.9248 11.4441 7.616 13.1143 7.616 15.1854V20.4411C7.616 22.5011 9.296 24.1824 11.3792 24.1824H17.024C20.1824 24.1936 22.7472 26.7434 22.7472 29.8835Z" fill="#00C497"/>
<path d="M48.6193 24.2047V43.5349H43.2657V41.23C41.7873 42.9225 39.6145 43.8133 37.2289 43.8133C32.3457 43.8133 28.9185 41.0853 28.9185 35.1169V24.1936H34.5521V34.293C34.5521 37.5221 35.9969 38.9696 38.4945 38.9696C41.0929 38.9696 42.9745 37.3217 42.9745 33.7585V24.2047H48.6193Z" fill="white"/>
<path d="M73.7408 32.4666V43.5347H68.096V33.3352C68.096 30.2063 66.6512 28.7699 64.1536 28.7699C61.4432 28.7699 59.4944 30.4178 59.4944 33.981V43.5347H53.8608V24.2045H59.248V26.4649C60.7712 24.817 63.0448 23.915 65.6768 23.915C70.2688 23.915 73.7408 26.5763 73.7408 32.4666Z" fill="white"/>
<path d="M91.3808 42.5996C90.2272 43.4236 88.5248 43.8245 86.7888 43.8245C82.1968 43.8245 79.52 41.4861 79.52 36.8874V28.9482H76.5184V24.639H79.52V19.929H85.1536V24.639H89.992V28.9482H85.1536V36.8206C85.1536 38.4686 86.0608 39.3705 87.5728 39.3705C88.4016 39.3705 89.2304 39.1144 89.8464 38.6467L91.3808 42.5996Z" fill="white"/>
<path d="M94.5504 16.8667H100.184V43.5237H94.5504V16.8667Z" fill="white"/>
<path d="M104.742 18.3811C104.742 16.6218 106.154 15.2522 108.248 15.2522C110.342 15.2522 111.754 16.5438 111.754 18.2698C111.754 20.1404 110.342 21.4989 108.248 21.4989C106.154 21.51 104.742 20.1404 104.742 18.3811ZM105.437 24.2047H111.07V43.5349H105.437V24.2047Z" fill="white"/>
<path d="M15.2656 3.93914C15.2656 1.85691 16.9568 0.175537 19.0512 0.175537C21.1456 0.175537 22.8368 1.85691 22.8368 3.93914C22.8368 6.02136 21.1456 7.70273 19.0512 7.70273C16.9568 7.70273 15.2656 6.02136 15.2656 3.93914Z" fill="#008A7E"/>
<path d="M104.306 18.1027C104.306 16.0205 105.997 14.3391 108.091 14.3391C110.186 14.3391 111.877 16.0205 111.877 18.1027C111.877 20.1849 110.186 21.8663 108.091 21.8663C106.008 21.8663 104.306 20.1849 104.306 18.1027Z" fill="#00C497"/>
<defs>
<linearGradient id="paint0_linear_102_50" x1="18.992" y1="47.1764" x2="18.992" y2="14.8565" gradientUnits="userSpaceOnUse">
<stop stop-color="#666666"/>
<stop offset="0.1062" stop-color="#5A5A5A" stop-opacity="0.8938"/>
<stop offset="0.7135" stop-color="#191919" stop-opacity="0.2865"/>
<stop offset="1" stop-opacity="0"/>
</linearGradient>
</defs>
</svg>
