<svg width="112" height="44" viewBox="0 0 112 44" fill="none" xmlns="http://www.w3.org/2000/svg">
<path d="M15.1423 20.9687V15.2008C15.1423 13.1408 16.8223 11.4595 18.9055 11.4595C20.9775 11.4595 22.6687 13.1297 22.6687 15.2008V40.0205C22.6687 42.0805 20.9887 43.7618 18.9055 43.7618C16.8335 43.7618 15.1423 42.0916 15.1423 40.0205V34.7537V20.9687Z" fill="#008A7E"/>
<path d="M15.1423 20.9687V15.2008C15.1423 13.1408 16.8223 11.4595 18.9055 11.4595C20.9775 11.4595 22.6687 13.1297 22.6687 15.2008V40.0205C22.6687 42.0805 20.9887 43.7618 18.9055 43.7618C16.8335 43.7618 15.1423 42.0916 15.1423 40.0205V34.7537V20.9687Z" fill="url(#paint0_linear_334_1250)"/>
<path d="M22.6576 29.8879V40.0095C22.6576 42.0695 20.9776 43.7508 18.8944 43.7508C16.8224 43.7508 15.1312 42.0806 15.1312 40.0095V34.2416C15.1312 32.1817 13.4512 30.5003 11.368 30.5003H11.2896C9.2176 30.5003 7.5264 32.1705 7.5264 34.2416V40.0095C7.5264 42.0695 5.8464 43.7508 3.7632 43.7508C1.6912 43.7508 0 42.0806 0 40.0095V15.1898C0 13.1299 1.68 11.4485 3.7632 11.4485C5.8352 11.4485 7.5264 13.1187 7.5264 15.1898V20.4455C7.5264 22.5054 9.2064 24.1868 11.2896 24.1868H16.9344C20.0928 24.198 22.6576 26.7478 22.6576 29.8879Z" fill="#00C497"/>
<path d="M48.5297 24.2091V43.5393H43.1761V41.2344C41.6977 42.9269 39.5249 43.8177 37.1393 43.8177C32.2561 43.8177 28.8289 41.0896 28.8289 35.1213V24.198H34.4625V34.2974C34.4625 37.5265 35.9073 38.974 38.4049 38.974C41.0033 38.974 42.8849 37.3261 42.8849 33.7629V24.2091H48.5297Z" fill="#424242"/>
<path d="M73.6512 32.471V43.5391H68.0064V33.3396C68.0064 30.2107 66.5616 28.7743 64.064 28.7743C61.3536 28.7743 59.4048 30.4222 59.4048 33.9854V43.5391H53.7712V24.2089H59.1584V26.4693C60.6816 24.8214 62.9552 23.9194 65.5872 23.9194C70.1792 23.9194 73.6512 26.5807 73.6512 32.471Z" fill="#424242"/>
<path d="M91.2914 42.604C90.1378 43.428 88.4354 43.8289 86.6994 43.8289C82.1074 43.8289 79.4306 41.4905 79.4306 36.8918V28.9526H76.429V24.6434H79.4306V19.9333H85.0642V24.6434H89.9026V28.9526H85.0642V36.825C85.0642 38.473 85.9714 39.3749 87.4834 39.3749C88.3122 39.3749 89.141 39.1188 89.757 38.6511L91.2914 42.604Z" fill="#424242"/>
<path d="M94.4609 16.8711H100.095V43.5281H94.4609V16.8711Z" fill="#424242"/>
<path d="M104.653 18.3855C104.653 16.6262 106.064 15.2566 108.158 15.2566C110.253 15.2566 111.664 16.5482 111.664 18.2742C111.664 20.1448 110.253 21.5033 108.158 21.5033C106.064 21.5144 104.653 20.1448 104.653 18.3855ZM105.347 24.2091H110.981V43.5392H105.347V24.2091Z" fill="#424242"/>
<path d="M15.176 3.94353C15.176 1.8613 16.8672 0.179932 18.9616 0.179932C21.056 0.179932 22.7472 1.8613 22.7472 3.94353C22.7472 6.02576 21.056 7.70713 18.9616 7.70713C16.8672 7.70713 15.176 6.02576 15.176 3.94353Z" fill="#008A7E"/>
<path d="M104.216 18.1071C104.216 16.0249 105.907 14.3435 108.002 14.3435C110.096 14.3435 111.787 16.0249 111.787 18.1071C111.787 20.1893 110.096 21.8707 108.002 21.8707C105.918 21.8707 104.216 20.1893 104.216 18.1071Z" fill="#00C497"/>
<defs>
<linearGradient id="paint0_linear_334_1250" x1="18.9024" y1="47.1808" x2="18.9024" y2="14.8609" gradientUnits="userSpaceOnUse">
<stop stop-color="#666666"/>
<stop offset="0.1062" stop-color="#5A5A5A" stop-opacity="0.8938"/>
<stop offset="0.7135" stop-color="#191919" stop-opacity="0.2865"/>
<stop offset="1" stop-opacity="0"/>
</linearGradient>
</defs>
</svg>
