<svg width="232" height="232" viewBox="0 0 232 232" fill="none" xmlns="http://www.w3.org/2000/svg">
<g clip-path="url(#clip0_100_41)">
<path fill-rule="evenodd" clip-rule="evenodd" d="M38.0922 4.4826L37.9862 9.85169C37.9873 10.6932 38.2237 11.2623 39.1559 11.0261L40.7608 10.9382C42.2078 10.9651 41.7228 10.143 41.9245 9.62272L41.1457 4.17176C41.2125 3.19922 41.0645 2.41657 39.6092 2.78979C38.8385 2.87494 37.8361 2.54128 38.0922 4.4826Z" fill="white" stroke="white" stroke-width="0.246591"/>
<path fill-rule="evenodd" clip-rule="evenodd" d="M37.9152 26.3585C37.931 27.2148 37.9675 28.0588 39.1545 28.2185L44.744 27.7849C44.9467 23.7466 44.6257 18.8091 42.6578 14.4606C42.2271 13.2876 41.8591 12.1688 41.595 11.1397C42.4775 10.8421 42.4541 10.0961 42.4312 9.36713C42.4261 9.20269 42.4209 9.03911 42.4262 8.88175C42.4683 8.87497 42.5117 8.86848 42.5561 8.86185C43.3257 8.74681 44.3863 8.58827 43.9811 6.10219L42.4551 6.06713C42.4629 5.06929 42.009 4.41206 41.2968 4.2474C41.2422 4.03426 41.2434 3.81178 41.2445 3.60215C41.2477 2.97328 41.2504 2.46001 39.7455 2.66144C39.6023 2.6806 39.4593 2.69385 39.32 2.70674C38.4352 2.78865 37.703 2.85643 38.0806 4.33575C37.2642 4.50817 36.9803 5.83348 37.131 6.32082C36.7697 6.36105 36.6208 6.37593 36.4726 6.3965C36.3046 6.41984 36.1376 6.45049 35.663 6.53377C35.6529 6.63222 35.6415 6.73093 35.6302 6.82937C35.5028 7.93711 35.3793 9.01131 37.1246 9.29815C37.1257 9.31245 37.1269 9.32675 37.128 9.34105C37.184 10.0364 37.2399 10.7317 38.0269 11.2245L37.9152 26.3585ZM39.3149 22.8787L39.1448 15.3325C39.1369 14.9211 39.2657 14.6036 39.6681 14.474L41.0669 14.3718C41.6576 14.3639 41.7542 14.6498 41.8508 14.9358C41.8697 14.9916 41.8886 15.0475 41.9111 15.1012L43.4297 22.256C43.4437 22.3582 43.4599 22.4549 43.4751 22.5459C43.5695 23.1097 43.6273 23.4551 42.9092 23.5538L39.968 23.7978C39.6329 23.7764 39.3238 23.6919 39.3149 22.8787Z" fill="white"/>
<path d="M39.1545 28.2185L39.1381 28.3406L39.151 28.3424L39.164 28.3414L39.1545 28.2185ZM37.9152 26.3585L37.7919 26.3576L37.792 26.3608L37.9152 26.3585ZM44.744 27.7849L44.7535 27.9078L44.8617 27.8994L44.8671 27.791L44.744 27.7849ZM42.6578 14.4606L42.5417 14.5032L42.5455 14.5114L42.6578 14.4606ZM41.595 11.1397L41.5556 11.0229L41.4471 11.0595L41.4756 11.1704L41.595 11.1397ZM42.4312 9.36713L42.5544 9.36326L42.4312 9.36713ZM42.4262 8.88175L42.4066 8.76002L42.3064 8.77616L42.303 8.8776L42.4262 8.88175ZM42.5561 8.86185L42.5378 8.73991L42.5378 8.73991L42.5561 8.86185ZM43.9811 6.10219L44.1028 6.08236L44.0863 5.98128L43.9839 5.97893L43.9811 6.10219ZM42.4551 6.06713L42.3318 6.06616L42.3308 6.1876L42.4523 6.19039L42.4551 6.06713ZM41.2968 4.2474L41.1774 4.278L41.196 4.35063L41.269 4.36752L41.2968 4.2474ZM41.2445 3.60215L41.1212 3.60151L41.1212 3.60151L41.2445 3.60215ZM39.7455 2.66144L39.7618 2.78365L39.7455 2.66144ZM39.32 2.70674L39.3086 2.58397L39.32 2.70674ZM38.0806 4.33575L38.1061 4.45638L38.2319 4.42982L38.2001 4.30526L38.0806 4.33575ZM37.131 6.32082L37.1446 6.44335L37.2929 6.42685L37.2488 6.28439L37.131 6.32082ZM36.4726 6.3965L36.4896 6.51863L36.4896 6.51863L36.4726 6.3965ZM35.663 6.53377L35.6416 6.41233L35.5498 6.42845L35.5403 6.52122L35.663 6.53377ZM35.6302 6.82937L35.7527 6.84346L35.6302 6.82937ZM37.1246 9.29815L37.2475 9.28821L37.2397 9.19213L37.1446 9.17649L37.1246 9.29815ZM37.128 9.34105L37.2509 9.33116L37.128 9.34105ZM38.0269 11.2245L38.1502 11.2254L38.1507 11.1565L38.0924 11.12L38.0269 11.2245ZM39.1448 15.3325L39.0215 15.3348L39.0215 15.3353L39.1448 15.3325ZM39.3149 22.8787L39.4382 22.8774L39.4382 22.8759L39.3149 22.8787ZM39.6681 14.474L39.6591 14.351L39.6443 14.3521L39.6302 14.3566L39.6681 14.474ZM41.0669 14.3718L41.0652 14.2483L41.0579 14.2489L41.0669 14.3718ZM41.8508 14.9358L41.9676 14.8963L41.9676 14.8963L41.8508 14.9358ZM41.9111 15.1012L42.0317 15.0756L42.0293 15.0642L42.0248 15.0534L41.9111 15.1012ZM43.4297 22.256L43.5521 22.2392L43.5503 22.2304L43.4297 22.256ZM43.4751 22.5459L43.5967 22.5255L43.4751 22.5459ZM42.9092 23.5538L42.9194 23.6768L42.926 23.6759L42.9092 23.5538ZM39.968 23.7978L39.9602 23.9209L39.9692 23.9214L39.9782 23.9207L39.968 23.7978ZM39.1709 28.0963C38.6114 28.021 38.3458 27.7909 38.2071 27.4971C38.061 27.1873 38.0465 26.7903 38.0385 26.3562L37.792 26.3608C37.7997 26.783 37.8114 27.2361 37.9841 27.6023C38.1644 27.9845 38.5106 28.2562 39.1381 28.3406L39.1709 28.0963ZM44.7344 27.6619L39.145 28.0955L39.164 28.3414L44.7535 27.9078L44.7344 27.6619ZM42.5455 14.5114C44.5018 18.8344 44.8231 23.7494 44.6208 27.7787L44.8671 27.791C45.0703 23.7438 44.7495 18.7838 42.7701 14.4097L42.5455 14.5114ZM41.4756 11.1704C41.7411 12.2049 42.1106 13.328 42.542 14.5031L42.7735 14.4181C42.3437 13.2473 41.9771 12.1327 41.7144 11.1091L41.4756 11.1704ZM42.308 9.371C42.3196 9.74101 42.329 10.0868 42.2353 10.3773C42.1457 10.655 41.9598 10.8866 41.5556 11.0229L41.6344 11.2565C42.1127 11.0953 42.3564 10.805 42.4699 10.4531C42.5794 10.114 42.5657 9.72222 42.5544 9.36326L42.308 9.371ZM42.303 8.8776C42.2975 9.03968 42.3028 9.20734 42.308 9.371L42.5544 9.36326C42.5493 9.19803 42.5443 9.03855 42.5494 8.8859L42.303 8.8776ZM42.5378 8.73991C42.4936 8.74652 42.4495 8.75311 42.4066 8.76002L42.4458 9.00347C42.4871 8.99683 42.5298 8.99044 42.5743 8.98379L42.5378 8.73991ZM43.8594 6.12202C44.0603 7.35448 43.8899 7.9688 43.6153 8.29121C43.3389 8.61565 42.9299 8.6813 42.5378 8.73991L42.5743 8.98379C42.9518 8.92736 43.4579 8.85621 43.803 8.45111C44.1498 8.04397 44.3071 7.33597 44.1028 6.08236L43.8594 6.12202ZM42.4523 6.19039L43.9783 6.22545L43.9839 5.97893L42.4579 5.94386L42.4523 6.19039ZM41.269 4.36752C41.9074 4.51511 42.3394 5.10587 42.3318 6.06616L42.5784 6.0681C42.5865 5.03271 42.1107 4.309 41.3246 4.12727L41.269 4.36752ZM41.1212 3.60151C41.1201 3.80848 41.1182 4.04695 41.1774 4.278L41.4163 4.2168C41.3662 4.02157 41.3666 3.81509 41.3677 3.60279L41.1212 3.60151ZM39.7618 2.78365C40.1326 2.73402 40.4022 2.72969 40.5979 2.75712C40.7928 2.78443 40.9057 2.84195 40.9746 2.90886C41.043 2.97534 41.0815 3.06426 41.1017 3.18231C41.1223 3.30302 41.122 3.44151 41.1212 3.60151L41.3677 3.60279C41.3685 3.44835 41.3697 3.28686 41.3448 3.14076C41.3193 2.99199 41.2651 2.84727 41.1464 2.73201C41.0283 2.61717 40.8599 2.54483 40.6321 2.51291C40.4052 2.4811 40.1108 2.48815 39.7291 2.53924L39.7618 2.78365ZM39.3313 2.82951C39.4702 2.81665 39.6158 2.8032 39.7618 2.78365L39.7291 2.53924C39.5889 2.55801 39.4483 2.57104 39.3086 2.58397L39.3313 2.82951ZM38.2001 4.30526C38.0137 3.57496 38.1178 3.25382 38.3073 3.09067C38.4084 3.00373 38.5482 2.94725 38.7263 2.90824C38.9046 2.8692 39.1082 2.85017 39.3313 2.82951L39.3086 2.58397C39.0894 2.60427 38.8696 2.62443 38.6736 2.66736C38.4774 2.71033 38.2919 2.77861 38.1465 2.90376C37.8432 3.1648 37.77 3.61722 37.9611 4.36624L38.2001 4.30526ZM37.2488 6.28439C37.2178 6.18413 37.2063 6.02798 37.2238 5.84072C37.241 5.65568 37.2855 5.4496 37.3587 5.25324C37.5078 4.85312 37.7604 4.52938 38.1061 4.45638L38.0551 4.21512C37.5843 4.31454 37.2869 4.73967 37.1276 5.16714C37.0466 5.38457 36.9974 5.61198 36.9782 5.81789C36.9593 6.02157 36.9689 6.21383 37.0132 6.35724L37.2488 6.28439ZM36.4896 6.51863C36.6355 6.49836 36.7814 6.48381 37.1446 6.44335L37.1174 6.19828C36.758 6.2383 36.606 6.2535 36.4557 6.27438L36.4896 6.51863ZM35.6843 6.65521C36.1608 6.57161 36.3244 6.54156 36.4896 6.51863L36.4557 6.27438C36.2848 6.29811 36.1145 6.32937 35.6416 6.41233L35.6843 6.65521ZM35.7527 6.84346C35.764 6.74514 35.7754 6.64566 35.7856 6.54632L35.5403 6.52122C35.5303 6.61877 35.5191 6.71671 35.5077 6.81529L35.7527 6.84346ZM37.1446 9.17649C36.2984 9.03742 35.9405 8.71566 35.7901 8.32711C35.632 7.91835 35.6879 7.40655 35.7527 6.84346L35.5077 6.81529C35.4451 7.35993 35.3756 7.9391 35.5602 8.41609C35.7525 8.91328 36.2055 9.27204 37.1046 9.41982L37.1446 9.17649ZM37.2509 9.33116C37.2498 9.31687 37.2486 9.30254 37.2475 9.28821L37.0017 9.30809C37.0028 9.32236 37.004 9.33663 37.0051 9.35093L37.2509 9.33116ZM38.0924 11.12C37.3623 10.6629 37.3071 10.0291 37.2509 9.33116L37.0051 9.35093C37.0608 10.0436 37.1174 10.8005 37.9615 11.329L38.0924 11.12ZM38.0385 26.3594L38.1502 11.2254L37.9037 11.2236L37.7919 26.3576L38.0385 26.3594ZM39.0215 15.3353L39.1917 22.8815L39.4382 22.8759L39.2681 15.3297L39.0215 15.3353ZM39.6302 14.3566C39.4022 14.4301 39.2429 14.5608 39.1448 14.7378C39.0488 14.9109 39.0174 15.1174 39.0215 15.3348L39.2681 15.3301C39.2644 15.1362 39.2934 14.9782 39.3604 14.8574C39.4253 14.7403 39.5316 14.6475 39.7059 14.5913L39.6302 14.3566ZM41.0579 14.2489L39.6591 14.351L39.677 14.5969L41.0758 14.4948L41.0579 14.2489ZM41.9676 14.8963C41.9211 14.7585 41.865 14.5854 41.7298 14.4549C41.5886 14.3186 41.3805 14.2443 41.0652 14.2486L41.0685 14.4951C41.3439 14.4914 41.4796 14.5561 41.5585 14.6323C41.6434 14.7143 41.6839 14.827 41.734 14.9752L41.9676 14.8963ZM42.0248 15.0534C42.0042 15.0045 41.9868 14.9529 41.9676 14.8963L41.734 14.9752C41.7526 15.0304 41.7729 15.0905 41.7975 15.149L42.0248 15.0534ZM43.5503 22.2304L42.0317 15.0756L41.7905 15.1268L43.309 22.2816L43.5503 22.2304ZM43.5967 22.5255C43.5814 22.4343 43.5655 22.3394 43.5518 22.2392L43.3075 22.2727C43.3218 22.377 43.3383 22.4754 43.3535 22.5662L43.5967 22.5255ZM42.926 23.6759C43.2992 23.6246 43.5243 23.5018 43.6123 23.2676C43.6529 23.1592 43.6585 23.0398 43.6505 22.9192C43.6425 22.7986 43.62 22.6647 43.5967 22.5255L43.3535 22.5662C43.3774 22.7089 43.3975 22.8296 43.4044 22.9354C43.4114 23.0412 43.4042 23.1201 43.3814 23.1809C43.3423 23.285 43.2372 23.3842 42.8924 23.4316L42.926 23.6759ZM39.9782 23.9207L42.9194 23.6766L42.899 23.4309L39.9578 23.6749L39.9782 23.9207ZM39.1917 22.88C39.1962 23.2968 39.277 23.5608 39.4301 23.7205C39.5853 23.8824 39.7895 23.91 39.9602 23.9209L39.9759 23.6748C39.8114 23.6643 39.6935 23.6389 39.6082 23.5499C39.5208 23.4587 39.4426 23.2739 39.4382 22.8774L39.1917 22.88Z" fill="white"/>
<path fill-rule="evenodd" clip-rule="evenodd" d="M37.9912 16.355L34.2007 16.6025C33.9894 15.9712 32.8181 15.9312 31.9576 15.9753C30.7824 16.0355 29.7764 16.8466 30.2202 17.8599C30.7097 18.9774 32.6019 18.6608 34.278 18.0617L37.9768 17.7623L37.9912 16.355Z" fill="white" stroke="white" stroke-width="0.246591"/>
<path fill-rule="evenodd" clip-rule="evenodd" d="M37.9665 22.8605L34.176 23.108C33.9647 22.4767 32.7812 22.6719 31.9208 22.716C30.7455 22.7762 29.4178 23.5786 30.1955 24.3654C31.0155 25.195 32.5772 25.1663 34.2532 24.5672L37.9521 24.2678L37.9665 22.8605Z" fill="white" stroke="white" stroke-width="0.246591"/>
<path fill-rule="evenodd" clip-rule="evenodd" d="M43.2565 15.853L45.7065 15.7034C45.8735 16.7714 46.6462 17.677 47.9139 17.4465C48.7737 17.2902 49.8036 16.1309 49.7581 14.6166C49.7173 13.2597 48.3528 12.1967 47.1563 12.287C46.2217 12.3575 45.5597 13.1038 45.5731 14.2776L42.6213 14.3759L43.2565 15.853Z" fill="white" stroke="white" stroke-width="0.246591"/>
<path fill-rule="evenodd" clip-rule="evenodd" d="M44.5595 21.237L47.2718 21.0682C47.4387 22.1362 48.2115 23.0418 49.4792 22.8114C50.339 22.6551 51.3688 21.4957 51.3233 19.9814C51.2825 18.6245 49.9181 17.5616 48.7216 17.6518C47.787 17.7223 47.1249 18.4687 47.1384 19.6424L44.3699 19.8446L44.5595 21.237Z" fill="white" stroke="white" stroke-width="0.246591"/>
<path fill-rule="evenodd" clip-rule="evenodd" d="M51.2817 180.716C50.9277 181.125 51.4067 183.164 53.2696 182.973C55.0535 182.791 55.2571 180.789 54.832 180.539L51.2817 180.716Z" fill="white" stroke="white" stroke-width="0.246591"/>
<path fill-rule="evenodd" clip-rule="evenodd" d="M52.522 182.945L54.3901 206.26L56.1716 222.27L55.078 200.255L54.2288 182.489C53.8038 182.883 53.1977 182.973 52.522 182.945Z" fill="white" stroke="white" stroke-width="0.246591"/>
<path fill-rule="evenodd" clip-rule="evenodd" d="M48.0745 181.033C48.0745 181.033 48.1864 181.998 48.989 182.209C49.7916 182.42 51.2849 181.875 51.2849 181.875L51.2831 180.715L48.0745 181.033Z" fill="white" stroke="white" stroke-width="0.246591"/>
<path opacity="0.98" fill-rule="evenodd" clip-rule="evenodd" d="M51.5465 179.785L55.6677 179.484C55.7359 177.261 55.304 172.752 54.9172 170.341C54.4393 164.648 53.7551 161.486 54.8633 154.849C55.9026 151.532 55.9766 147.727 55.8822 143.837C53.2227 144.781 50.3197 145.362 46.6747 144.841C47.3244 148.353 47.5797 151.741 49.2825 155.588C51.3618 160.775 51.3587 165.104 51.2003 169.37C50.8885 172.873 51.2138 176.329 51.5465 179.785Z" fill="white" stroke="white" stroke-width="0.246591"/>
<path fill-rule="evenodd" clip-rule="evenodd" d="M48.4945 145.243L47.6476 140.681L45.9119 127.661L39.0533 24.0991L39.6501 24.1147L40.6723 24.0401" fill="white"/>
<path d="M48.4945 145.243L47.6476 140.681L45.9119 127.661L39.0533 24.0991L39.6501 24.1147L40.6723 24.0401" stroke="white" stroke-width="0.246591"/>
<path fill-rule="evenodd" clip-rule="evenodd" d="M51.0984 149.314L49.5834 128.565L49.4983 127.399L40.672 24.0398L40.7789 24.032L41.2204 24.5136" fill="white"/>
<path d="M51.0984 149.314L49.5834 128.565L49.4983 127.399L40.672 24.0398L40.7789 24.032L41.2204 24.5136" stroke="white" stroke-width="0.246591"/>
<path fill-rule="evenodd" clip-rule="evenodd" d="M53.0698 149.052L52.1802 128.844L52.044 126.979L42.4048 23.8539L42.2035 23.9278" fill="white"/>
<path d="M53.0698 149.052L52.1802 128.844L52.044 126.979L42.4048 23.8539L42.2035 23.9278" stroke="white" stroke-width="0.246591"/>
<path fill-rule="evenodd" clip-rule="evenodd" d="M55.0618 149.025L54.9967 128.874L54.8264 126.542L43.5212 23.0703" fill="white"/>
<path d="M55.0618 149.025L54.9967 128.874L54.8264 126.542L43.5212 23.0703" stroke="white" stroke-width="0.246591"/>
</g>
<path d="M29.3825 129.138C37.7911 145.674 33.6141 155.84 15.5315 156.621C21.2799 163.341 21.0307 163.41 24.5309 165.9C28.1478 168.385 32.2068 170.271 36.7077 171.556C41.3209 172.73 46.2547 173.203 51.5092 172.976C60.1499 172.602 66.901 170.462 71.7625 166.554C76.6239 162.645 78.9179 157.527 78.6444 151.199C78.5305 148.562 77.9002 146.159 76.7535 143.99C75.7237 141.816 73.9978 139.777 71.5759 137.874C69.1494 135.866 65.9078 133.945 61.8511 132.113C57.9112 130.276 52.9136 128.326 46.8582 126.263C39.4956 123.728 33.3052 121.248 28.2871 118.823C23.2689 116.399 19.2387 113.826 16.1965 111.104C13.1543 108.383 10.9226 105.468 9.50138 102.359C8.19241 99.1403 7.44905 95.4742 7.27129 91.361C7.06162 86.5095 7.80203 81.9868 9.49254 77.7929C11.2998 73.5939 13.8911 69.9422 17.2665 66.8377C20.6373 63.6278 24.6823 61.1284 29.4013 59.3395C34.1158 57.4451 39.8376 55.8498 45.5592 55.6026C50.6969 55.3805 55.5978 55.5247 60.3898 56.5004C69.5918 59.1803 73.1284 61.3244 74.7365 62.9275C76.3445 64.5307 76.3888 65.5547 76.3888 65.5547C76.3888 65.5547 73.4276 68.2473 76.9893 67.5804C80.551 66.9136 77.2139 70.0759 77.1663 71.6762C76.8557 82.1204 86.5527 98.9688 63.7497 94.825C40.9467 90.6812 69.7158 75.1902 65.2944 69.6754C59.8576 65.6838 53.4026 63.8495 45.9296 64.1725C38.8068 64.4803 33.212 66.3071 29.1451 69.6528C25.0783 72.9984 23.1611 77.3607 23.3935 82.7395C23.5029 85.2707 24.0703 87.5707 25.0956 89.6397C26.1163 91.6032 27.7186 93.4887 29.9024 95.2963C32.0817 96.9984 34.9055 98.7255 38.3738 100.478C41.8375 102.124 46.1231 103.841 51.2307 105.628C60.0219 108.735 67.3443 111.694 73.1981 114.505C79.0473 117.211 83.7311 120.02 87.2495 122.932C90.7633 125.739 93.2938 128.799 94.8409 132.114C96.3834 135.323 97.2435 138.984 97.4213 143.097C97.6492 148.37 96.6912 153.272 94.5473 157.803C92.4033 162.333 89.298 166.271 85.2311 169.616C81.1642 172.962 76.2504 175.658 70.4896 177.703C64.7242 179.643 58.3385 180.764 51.3324 181.067C44.6768 181.355 38.6268 180.771 33.1826 179.316C27.8552 177.855 22.3608 175.24 16.6996 171.469C16.6996 171.469 -7.04022 152.768 11.0096 150.824C29.0595 148.879 9.86454 128.524 5.31967 130.178C0.774792 131.832 20.9738 112.602 29.3825 129.138Z" fill="white"/>
<path d="M115.979 109.376C115.979 110.177 116.011 110.81 116.075 111.275C116.139 111.74 116.26 112.1 116.436 112.357C116.628 112.613 116.892 112.781 117.229 112.861C117.582 112.941 118.038 112.99 118.599 113.006V113.919H110.811V113.006C111.372 112.99 111.821 112.941 112.157 112.861C112.51 112.765 112.782 112.597 112.975 112.357C113.167 112.116 113.295 111.78 113.359 111.347C113.423 110.898 113.455 110.298 113.455 109.544V99.7858C113.455 99.1127 113.423 98.5599 113.359 98.1273C113.311 97.6786 113.199 97.3261 113.023 97.0697C112.862 96.8133 112.622 96.637 112.302 96.5409C111.981 96.4287 111.564 96.3566 111.052 96.3246V95.4112H118.359V96.3246C117.846 96.3406 117.429 96.4047 117.109 96.5169C116.804 96.629 116.564 96.8213 116.388 97.0937C116.227 97.3501 116.115 97.7106 116.051 98.1753C116.003 98.64 115.979 99.2329 115.979 99.954V109.376ZM129.897 110.241L134.127 99.8098C134.368 99.2169 134.536 98.7522 134.632 98.4157C134.728 98.0792 134.776 97.7747 134.776 97.5023C134.776 97.0697 134.64 96.7652 134.368 96.589C134.111 96.4127 133.622 96.3246 132.901 96.3246V95.4112H138.742V96.3246C138.374 96.3726 138.053 96.4367 137.781 96.5169C137.524 96.597 137.292 96.7091 137.084 96.8534C136.891 96.9976 136.715 97.1899 136.555 97.4302C136.411 97.6546 136.266 97.935 136.122 98.2715L129.608 114.159H128.767L122.566 99.1849C122.358 98.7041 122.149 98.2875 121.941 97.935C121.749 97.5825 121.532 97.294 121.292 97.0697C121.052 96.8453 120.779 96.6771 120.475 96.5649C120.17 96.4528 119.81 96.3806 119.393 96.3486V95.4112H127.229V96.3486C126.78 96.3486 126.412 96.3726 126.123 96.4207C125.851 96.4528 125.635 96.5169 125.474 96.613C125.314 96.6931 125.202 96.7973 125.138 96.9255C125.074 97.0537 125.042 97.1979 125.042 97.3581C125.042 97.5825 125.082 97.8468 125.162 98.1513C125.242 98.4397 125.394 98.8644 125.618 99.4252L129.897 110.241ZM148.429 107.213H142.012C141.739 107.87 141.507 108.455 141.315 108.968C141.122 109.464 140.962 109.897 140.834 110.265C140.722 110.634 140.642 110.946 140.594 111.203C140.546 111.459 140.522 111.668 140.522 111.828C140.522 112.276 140.666 112.589 140.954 112.765C141.243 112.925 141.723 113.006 142.396 113.006V113.919H136.556V113.006C136.924 112.958 137.237 112.893 137.493 112.813C137.765 112.733 137.998 112.621 138.19 112.477C138.398 112.333 138.575 112.148 138.719 111.924C138.879 111.684 139.031 111.395 139.176 111.059L145.425 95.4112H146.458L151.915 108.968C152.283 109.865 152.604 110.586 152.876 111.131C153.149 111.66 153.413 112.06 153.669 112.333C153.926 112.605 154.198 112.781 154.487 112.861C154.791 112.941 155.152 112.982 155.568 112.982V113.919H147.732V112.982C148.582 112.982 149.167 112.901 149.487 112.741C149.808 112.581 149.968 112.317 149.968 111.948C149.968 111.788 149.96 111.644 149.944 111.515C149.928 111.371 149.896 111.219 149.848 111.059C149.816 110.898 149.759 110.722 149.679 110.53C149.615 110.322 149.527 110.081 149.415 109.809L148.429 107.213ZM142.493 106.011H147.973L145.305 98.9205L142.493 106.011ZM171.948 114.159L160.531 99.1127H160.435V109.376C160.435 110.177 160.459 110.81 160.507 111.275C160.571 111.74 160.683 112.1 160.843 112.357C161.019 112.613 161.26 112.781 161.564 112.861C161.885 112.941 162.301 112.99 162.814 113.006V113.919H156.348V113.006C156.909 112.99 157.358 112.941 157.694 112.861C158.047 112.765 158.319 112.597 158.512 112.357C158.704 112.116 158.832 111.78 158.896 111.347C158.96 110.898 158.992 110.298 158.992 109.544V99.7858C158.992 99.1127 158.96 98.5599 158.896 98.1273C158.848 97.6786 158.736 97.3261 158.56 97.0697C158.399 96.8133 158.159 96.637 157.839 96.5409C157.518 96.4287 157.102 96.3566 156.589 96.3246V95.4112H161.348L171.852 109.424H171.948V99.954C171.948 99.1688 171.916 98.5439 171.852 98.0792C171.804 97.5985 171.691 97.2299 171.515 96.9735C171.355 96.7172 171.115 96.5489 170.794 96.4688C170.49 96.3887 170.081 96.3406 169.568 96.3246V95.4112H176.034V96.3246C175.473 96.3406 175.016 96.3967 174.664 96.4928C174.327 96.5729 174.063 96.7332 173.871 96.9735C173.678 97.2139 173.55 97.5584 173.486 98.0071C173.422 98.4558 173.39 99.0487 173.39 99.7858V114.159H171.948ZM111.124 138.27H112.013C112.125 138.992 112.334 139.641 112.638 140.217C112.959 140.794 113.351 141.283 113.816 141.684C114.297 142.084 114.841 142.397 115.45 142.621C116.075 142.829 116.748 142.933 117.469 142.933C118.655 142.933 119.593 142.653 120.282 142.092C120.971 141.531 121.315 140.77 121.315 139.809C121.315 139.408 121.243 139.04 121.099 138.703C120.971 138.367 120.746 138.046 120.426 137.742C120.105 137.421 119.673 137.109 119.128 136.804C118.599 136.5 117.926 136.171 117.109 135.819C116.115 135.386 115.282 134.97 114.609 134.569C113.936 134.168 113.399 133.752 112.999 133.319C112.598 132.886 112.31 132.43 112.133 131.949C111.973 131.452 111.893 130.891 111.893 130.266C111.893 129.529 112.021 128.848 112.278 128.223C112.55 127.598 112.927 127.062 113.407 126.613C113.888 126.148 114.457 125.796 115.114 125.555C115.771 125.299 116.492 125.171 117.277 125.171C117.982 125.171 118.639 125.283 119.248 125.507C119.857 125.732 120.474 126.092 121.099 126.589L121.724 125.507H122.277L122.541 130.291H121.652C121.267 128.977 120.706 127.999 119.969 127.358C119.248 126.717 118.375 126.397 117.349 126.397C116.372 126.397 115.595 126.637 115.018 127.118C114.441 127.598 114.152 128.247 114.152 129.065C114.152 129.449 114.216 129.802 114.345 130.122C114.473 130.427 114.681 130.723 114.97 131.012C115.258 131.284 115.635 131.564 116.099 131.853C116.564 132.125 117.141 132.414 117.83 132.718C119.016 133.247 120.001 133.744 120.786 134.208C121.571 134.657 122.196 135.114 122.661 135.578C123.126 136.027 123.454 136.508 123.647 137.021C123.839 137.517 123.935 138.078 123.935 138.703C123.935 139.504 123.775 140.241 123.454 140.914C123.134 141.587 122.685 142.164 122.108 142.645C121.531 143.126 120.842 143.502 120.041 143.775C119.24 144.031 118.359 144.159 117.397 144.159C116.484 144.159 115.659 144.031 114.922 143.775C114.2 143.518 113.463 143.086 112.71 142.477L112.037 143.655H111.484L111.124 138.27ZM131.471 140.097C131.471 140.706 131.503 141.203 131.567 141.587C131.631 141.972 131.76 142.268 131.952 142.477C132.144 142.685 132.408 142.829 132.745 142.909C133.081 142.974 133.53 143.006 134.091 143.006V143.919H126.303V143.006C126.864 143.006 127.313 142.974 127.649 142.909C128.002 142.829 128.274 142.693 128.467 142.501C128.659 142.293 128.787 142.012 128.851 141.66C128.915 141.291 128.947 140.826 128.947 140.265V129.065C128.947 128.456 128.907 127.975 128.827 127.623C128.763 127.254 128.635 126.974 128.443 126.781C128.266 126.589 128.026 126.469 127.721 126.421C127.417 126.357 127.024 126.325 126.544 126.325V125.411H133.851V126.325C133.37 126.325 132.977 126.357 132.673 126.421C132.368 126.485 132.12 126.621 131.928 126.829C131.752 127.038 131.631 127.334 131.567 127.719C131.503 128.087 131.471 128.592 131.471 129.233V135.17L137.48 127.935C137.801 127.534 137.961 127.222 137.961 126.998C137.961 126.549 137.504 126.325 136.591 126.325V125.411H142.383V126.301C142.063 126.301 141.783 126.325 141.542 126.373C141.302 126.405 141.061 126.485 140.821 126.613C140.597 126.741 140.356 126.925 140.1 127.166C139.844 127.406 139.547 127.719 139.211 128.103L134.692 133.319L141.71 141.756C142.111 142.22 142.488 142.549 142.84 142.741C143.193 142.917 143.665 143.006 144.258 143.006V143.919H136.879V143.006C137.504 143.006 137.953 142.958 138.225 142.861C138.498 142.749 138.634 142.581 138.634 142.357C138.634 142.228 138.57 142.044 138.442 141.804C138.313 141.563 138.105 141.267 137.817 140.914L133.13 135.146L131.471 137.069V140.097ZM155.683 137.213H149.265C148.992 137.87 148.76 138.455 148.568 138.968C148.376 139.464 148.215 139.897 148.087 140.265C147.975 140.634 147.895 140.946 147.847 141.203C147.799 141.459 147.775 141.668 147.775 141.828C147.775 142.276 147.919 142.589 148.207 142.765C148.496 142.925 148.976 143.006 149.649 143.006V143.919H143.809V143.006C144.177 142.958 144.49 142.893 144.746 142.813C145.019 142.733 145.251 142.621 145.443 142.477C145.651 142.333 145.828 142.148 145.972 141.924C146.132 141.684 146.284 141.395 146.429 141.059L152.678 125.411H153.712L159.168 138.968C159.536 139.865 159.857 140.586 160.129 141.131C160.402 141.66 160.666 142.06 160.922 142.333C161.179 142.605 161.451 142.781 161.74 142.861C162.044 142.941 162.405 142.982 162.821 142.982V143.919H154.985V142.982C155.835 142.982 156.42 142.901 156.74 142.741C157.061 142.581 157.221 142.317 157.221 141.948C157.221 141.788 157.213 141.644 157.197 141.515C157.181 141.371 157.149 141.219 157.101 141.059C157.069 140.898 157.013 140.722 156.932 140.53C156.868 140.322 156.78 140.081 156.668 139.809L155.683 137.213ZM149.746 136.011H155.226L152.558 128.92L149.746 136.011ZM179.201 144.159L167.784 129.113H167.688V139.376C167.688 140.177 167.712 140.81 167.76 141.275C167.824 141.74 167.936 142.1 168.096 142.357C168.272 142.613 168.513 142.781 168.817 142.861C169.138 142.941 169.554 142.99 170.067 143.006V143.919H163.601V143.006C164.162 142.99 164.611 142.941 164.947 142.861C165.3 142.765 165.572 142.597 165.765 142.357C165.957 142.116 166.085 141.78 166.149 141.347C166.213 140.898 166.245 140.298 166.245 139.544V129.786C166.245 129.113 166.213 128.56 166.149 128.127C166.101 127.679 165.989 127.326 165.813 127.07C165.653 126.813 165.412 126.637 165.092 126.541C164.771 126.429 164.355 126.357 163.842 126.325V125.411H168.601L179.105 139.424H179.201V129.954C179.201 129.169 179.169 128.544 179.105 128.079C179.057 127.598 178.944 127.23 178.768 126.974C178.608 126.717 178.368 126.549 178.047 126.469C177.743 126.389 177.334 126.341 176.821 126.325V125.411H183.287V126.325C182.726 126.341 182.269 126.397 181.917 126.493C181.58 126.573 181.316 126.733 181.124 126.974C180.931 127.214 180.803 127.558 180.739 128.007C180.675 128.456 180.643 129.049 180.643 129.786V144.159H179.201ZM195.657 137.213H189.239C188.966 137.87 188.734 138.455 188.542 138.968C188.35 139.464 188.189 139.897 188.061 140.265C187.949 140.634 187.869 140.946 187.821 141.203C187.773 141.459 187.749 141.668 187.749 141.828C187.749 142.276 187.893 142.589 188.181 142.765C188.47 142.925 188.95 143.006 189.623 143.006V143.919H183.783V143.006C184.151 142.958 184.464 142.893 184.72 142.813C184.993 142.733 185.225 142.621 185.417 142.477C185.625 142.333 185.802 142.148 185.946 141.924C186.106 141.684 186.258 141.395 186.403 141.059L192.652 125.411H193.686L199.142 138.968C199.51 139.865 199.831 140.586 200.103 141.131C200.376 141.66 200.64 142.06 200.896 142.333C201.153 142.605 201.425 142.781 201.714 142.861C202.018 142.941 202.379 142.982 202.795 142.982V143.919H194.959V142.982C195.809 142.982 196.394 142.901 196.714 142.741C197.035 142.581 197.195 142.317 197.195 141.948C197.195 141.788 197.187 141.644 197.171 141.515C197.155 141.371 197.123 141.219 197.075 141.059C197.043 140.898 196.986 140.722 196.906 140.53C196.842 140.322 196.754 140.081 196.642 139.809L195.657 137.213ZM189.72 136.011H195.2L192.532 128.92L189.72 136.011ZM210.854 140.241L215.085 129.81C215.325 129.217 215.493 128.752 215.589 128.416C215.685 128.079 215.734 127.775 215.734 127.502C215.734 127.07 215.597 126.765 215.325 126.589C215.069 126.413 214.58 126.325 213.859 126.325V125.411H219.699V126.325C219.331 126.373 219.01 126.437 218.738 126.517C218.482 126.597 218.249 126.709 218.041 126.853C217.849 126.998 217.672 127.19 217.512 127.43C217.368 127.655 217.224 127.935 217.08 128.271L210.566 144.159H209.725L203.523 129.185C203.315 128.704 203.107 128.288 202.898 127.935C202.706 127.582 202.49 127.294 202.249 127.07C202.009 126.845 201.737 126.677 201.432 126.565C201.128 126.453 200.767 126.381 200.35 126.349V125.411H208.186V126.349C207.738 126.349 207.369 126.373 207.081 126.421C206.808 126.453 206.592 126.517 206.432 126.613C206.271 126.693 206.159 126.797 206.095 126.925C206.031 127.054 205.999 127.198 205.999 127.358C205.999 127.582 206.039 127.847 206.119 128.151C206.199 128.44 206.351 128.864 206.576 129.425L210.854 140.241ZM225.761 139.376C225.761 140.177 225.793 140.81 225.857 141.275C225.921 141.74 226.041 142.1 226.218 142.357C226.41 142.613 226.674 142.781 227.011 142.861C227.363 142.941 227.82 142.99 228.381 143.006V143.919H220.593V143.006C221.154 142.99 221.603 142.941 221.939 142.861C222.292 142.765 222.564 142.597 222.756 142.357C222.949 142.116 223.077 141.78 223.141 141.347C223.205 140.898 223.237 140.298 223.237 139.544V129.786C223.237 129.113 223.205 128.56 223.141 128.127C223.093 127.679 222.981 127.326 222.804 127.07C222.644 126.813 222.404 126.637 222.083 126.541C221.763 126.429 221.346 126.357 220.834 126.325V125.411H228.14V126.325C227.628 126.341 227.211 126.405 226.891 126.517C226.586 126.629 226.346 126.821 226.17 127.094C226.009 127.35 225.897 127.711 225.833 128.175C225.785 128.64 225.761 129.233 225.761 129.954V139.376Z" fill="white"/>
<defs>
<clipPath id="clip0_100_41">
<rect width="68.6686" height="227.604" fill="white" transform="translate(5.88684 5.00073) rotate(-4.17614)"/>
</clipPath>
</defs>
</svg>
