<svg width="112" height="44" viewBox="0 0 112 44" fill="none" xmlns="http://www.w3.org/2000/svg">
<path d="M15.1423 20.9688V15.2009C15.1423 13.141 16.8223 11.4596 18.9055 11.4596C20.9775 11.4596 22.6687 13.1298 22.6687 15.2009V40.0206C22.6687 42.0806 20.9887 43.762 18.9055 43.762C16.8335 43.762 15.1423 42.0917 15.1423 40.0206V34.7538V20.9688Z" fill="#008A7E"/>
<path d="M15.1423 20.9688V15.2009C15.1423 13.141 16.8223 11.4596 18.9055 11.4596C20.9775 11.4596 22.6687 13.1298 22.6687 15.2009V40.0206C22.6687 42.0806 20.9887 43.762 18.9055 43.762C16.8335 43.762 15.1423 42.0917 15.1423 40.0206V34.7538V20.9688Z" fill="url(#paint0_linear_334_1062)"/>
<path d="M22.6576 29.8879V40.0095C22.6576 42.0695 20.9776 43.7508 18.8944 43.7508C16.8224 43.7508 15.1312 42.0806 15.1312 40.0095V34.2416C15.1312 32.1817 13.4512 30.5003 11.368 30.5003H11.2896C9.2176 30.5003 7.5264 32.1705 7.5264 34.2416V40.0095C7.5264 42.0695 5.8464 43.7508 3.7632 43.7508C1.6912 43.7508 0 42.0806 0 40.0095V15.1898C0 13.1299 1.68 11.4485 3.7632 11.4485C5.8352 11.4485 7.5264 13.1187 7.5264 15.1898V20.4455C7.5264 22.5054 9.2064 24.1868 11.2896 24.1868H16.9344C20.0928 24.198 22.6576 26.7478 22.6576 29.8879Z" fill="#00C497"/>
<path d="M48.5297 24.209V43.5392H43.1761V41.2343C41.6977 42.9268 39.5249 43.8176 37.1393 43.8176C32.2561 43.8176 28.8289 41.0895 28.8289 35.1212V24.1979H34.4625V34.2972C34.4625 37.5264 35.9073 38.9739 38.4049 38.9739C41.0033 38.9739 42.8849 37.3259 42.8849 33.7628V24.209H48.5297Z" fill="#424242"/>
<path d="M73.6512 32.4712V43.5393H68.0064V33.3397C68.0064 30.2108 66.5616 28.7744 64.064 28.7744C61.3536 28.7744 59.4048 30.4223 59.4048 33.9855V43.5393H53.7712V24.2091H59.1584V26.4694C60.6816 24.8215 62.9552 23.9196 65.5872 23.9196C70.1792 23.9196 73.6512 26.5808 73.6512 32.4712Z" fill="#424242"/>
<path d="M91.2914 42.6039C90.1378 43.4279 88.4354 43.8287 86.6994 43.8287C82.1074 43.8287 79.4306 41.4904 79.4306 36.8917V28.9525H76.429V24.6433H79.4306V19.9332H85.0642V24.6433H89.9026V28.9525H85.0642V36.8249C85.0642 38.4728 85.9714 39.3748 87.4834 39.3748C88.3122 39.3748 89.141 39.1187 89.757 38.651L91.2914 42.6039Z" fill="#424242"/>
<path d="M94.4609 16.8711H100.095V43.5281H94.4609V16.8711Z" fill="#424242"/>
<path d="M104.653 18.3855C104.653 16.6262 106.064 15.2566 108.158 15.2566C110.253 15.2566 111.664 16.5482 111.664 18.2742C111.664 20.1448 110.253 21.5033 108.158 21.5033C106.064 21.5144 104.653 20.1448 104.653 18.3855ZM105.347 24.2091H110.981V43.5392H105.347V24.2091Z" fill="#424242"/>
<path d="M15.176 3.94353C15.176 1.8613 16.8672 0.179932 18.9616 0.179932C21.056 0.179932 22.7472 1.8613 22.7472 3.94353C22.7472 6.02576 21.056 7.70713 18.9616 7.70713C16.8672 7.70713 15.176 6.02576 15.176 3.94353Z" fill="#008A7E"/>
<path d="M104.216 18.1071C104.216 16.0249 105.907 14.3435 108.002 14.3435C110.096 14.3435 111.787 16.0249 111.787 18.1071C111.787 20.1893 110.096 21.8707 108.002 21.8707C105.918 21.8707 104.216 20.1893 104.216 18.1071Z" fill="#00C497"/>
<defs>
<linearGradient id="paint0_linear_334_1062" x1="18.9024" y1="47.1809" x2="18.9024" y2="14.861" gradientUnits="userSpaceOnUse">
<stop stop-color="#666666"/>
<stop offset="0.1062" stop-color="#5A5A5A" stop-opacity="0.8938"/>
<stop offset="0.7135" stop-color="#191919" stop-opacity="0.2865"/>
<stop offset="1" stop-opacity="0"/>
</linearGradient>
</defs>
</svg>
