<svg width="33" height="76" viewBox="0 0 33 76" fill="none" xmlns="http://www.w3.org/2000/svg">
<g clip-path="url(#clip0_2_5)">
<path fill-rule="evenodd" clip-rule="evenodd" d="M12.4785 1.46826L12.4437 3.2271C12.4441 3.50276 12.5216 3.6892 12.8269 3.61181L13.3527 3.58302C13.8267 3.59183 13.6678 3.32254 13.7339 3.15209L13.4788 1.36643C13.5006 1.04784 13.4522 0.791458 12.9754 0.913722C12.723 0.941615 12.3946 0.832311 12.4785 1.46826Z" fill="white" stroke="white" stroke-width="0.08078"/>
<path fill-rule="evenodd" clip-rule="evenodd" d="M12.4205 8.63474C12.4257 8.91525 12.4376 9.19172 12.8265 9.24404L14.6575 9.102C14.7239 7.77912 14.6187 6.16166 13.9741 4.73714C13.833 4.35291 13.7125 3.98639 13.6259 3.64928C13.915 3.55179 13.9074 3.3074 13.8999 3.0686C13.8982 3.01473 13.8965 2.96115 13.8982 2.9096C13.912 2.90738 13.9262 2.90525 13.9408 2.90308C14.1929 2.86539 14.5403 2.81346 14.4076 1.99906L13.9077 1.98757C13.9103 1.66069 13.7616 1.44539 13.5283 1.39145C13.5104 1.32163 13.5107 1.24875 13.5111 1.18008C13.5122 0.974067 13.513 0.805927 13.0201 0.871914C12.9732 0.87819 12.9263 0.882528 12.8807 0.886753C12.5908 0.913585 12.351 0.935788 12.4747 1.42039C12.2072 1.47688 12.1142 1.91103 12.1636 2.07067C12.0452 2.08385 11.9965 2.08873 11.9479 2.09547C11.8929 2.10311 11.8382 2.11315 11.6827 2.14043C11.6794 2.17268 11.6757 2.20502 11.672 2.23727C11.6302 2.60015 11.5898 2.95204 12.1615 3.04601C12.1619 3.05069 12.1622 3.05538 12.1626 3.06006C12.1809 3.28784 12.1993 3.51562 12.4571 3.67704L12.4205 8.63474ZM12.879 7.4949L12.8233 5.02287C12.8207 4.88811 12.8629 4.78409 12.9947 4.74163L13.4529 4.70817C13.6464 4.70557 13.6781 4.79923 13.7097 4.8929C13.7159 4.91121 13.7221 4.92951 13.7295 4.9471L14.2269 7.29091C14.2315 7.3244 14.2368 7.35606 14.2418 7.38586C14.2727 7.57056 14.2917 7.68372 14.0564 7.71604L13.0929 7.79599C12.9832 7.78899 12.8819 7.7613 12.879 7.4949Z" fill="white"/>
<path d="M12.8265 9.24404L12.821 9.28498L12.8296 9.28431L12.8265 9.24404ZM12.4205 8.63474L12.3801 8.63445L12.3801 8.63549L12.4205 8.63474ZM14.6575 9.102L14.6606 9.14227L14.6961 9.13952L14.6978 9.10403L14.6575 9.102ZM13.9741 4.73714L13.9361 4.7511L13.9373 4.7538L13.9741 4.73714ZM13.6259 3.64928L13.613 3.61101L13.5775 3.62299L13.5868 3.65932L13.6259 3.64928ZM13.8999 3.0686L13.9402 3.06734L13.9402 3.06734L13.8999 3.0686ZM13.8982 2.9096L13.8918 2.86972L13.859 2.87501L13.8579 2.90824L13.8982 2.9096ZM13.9408 2.90308L13.9467 2.94303L13.9467 2.94303L13.9408 2.90308ZM14.4076 1.99906L14.4474 1.99256L14.4421 1.95945L14.4085 1.95868L14.4076 1.99906ZM13.9077 1.98757L13.8673 1.98725L13.867 2.02703L13.9068 2.02795L13.9077 1.98757ZM13.5283 1.39145L13.4891 1.40147L13.4952 1.42527L13.5192 1.4308L13.5283 1.39145ZM13.5111 1.18008L13.4707 1.17987L13.4707 1.17987L13.5111 1.18008ZM13.0201 0.871914L13.0147 0.831881L13.0147 0.831881L13.0201 0.871914ZM12.8807 0.886753L12.8769 0.846535L12.8769 0.846535L12.8807 0.886753ZM12.4747 1.42039L12.483 1.45991L12.5242 1.45121L12.5138 1.4104L12.4747 1.42039ZM12.1636 2.07067L12.1681 2.11082L12.2166 2.10541L12.2022 2.05874L12.1636 2.07067ZM11.9479 2.09547L11.9535 2.13547L11.9535 2.13547L11.9479 2.09547ZM11.6827 2.14043L11.6757 2.10065L11.6456 2.10593L11.6425 2.13632L11.6827 2.14043ZM11.672 2.23727L11.7121 2.24188L11.7121 2.24188L11.672 2.23727ZM12.1615 3.04601L12.2017 3.04275L12.1992 3.01128L12.168 3.00615L12.1615 3.04601ZM12.1626 3.06006L12.1224 3.0633L12.1224 3.0633L12.1626 3.06006ZM12.4571 3.67704L12.4975 3.67734L12.4976 3.65478L12.4785 3.64281L12.4571 3.67704ZM12.8233 5.02287L12.7829 5.02364L12.7829 5.02378L12.8233 5.02287ZM12.879 7.4949L12.9194 7.49446L12.9194 7.49399L12.879 7.4949ZM12.9947 4.74163L12.9917 4.70017L12.9823 4.70318L12.9947 4.74163ZM13.4529 4.70817L13.4524 4.66771L13.45 4.66789L13.4529 4.70817ZM13.7097 4.8929L13.6715 4.90583L13.6715 4.90583L13.7097 4.8929ZM13.7295 4.9471L13.7697 4.93856L13.7667 4.93145L13.7295 4.9471ZM14.2269 7.29091L14.2671 7.2854L14.2664 7.28252L14.2269 7.29091ZM14.2418 7.38586L14.2817 7.3792L14.2817 7.37919L14.2418 7.38586ZM14.0564 7.71604L14.0598 7.75635L14.0619 7.75606L14.0564 7.71604ZM13.0929 7.79599L13.0903 7.83673L13.0963 7.83624L13.0929 7.79599ZM12.8318 9.20401C12.6485 9.17935 12.5615 9.10399 12.5161 9.00773C12.4682 8.90625 12.4635 8.77619 12.4609 8.634L12.3801 8.63549C12.3827 8.77381 12.3865 8.92224 12.4431 9.0422C12.5021 9.16738 12.6155 9.25641 12.8211 9.28407L12.8318 9.20401ZM14.6544 9.06173L12.8233 9.20377L12.8296 9.28431L14.6606 9.14227L14.6544 9.06173ZM13.9373 4.7538C14.5782 6.16994 14.6834 7.78004 14.6172 9.09998L14.6978 9.10403C14.7644 7.77821 14.6593 6.15337 14.0109 4.72049L13.9373 4.7538ZM13.5868 3.65932C13.6738 3.99822 13.7948 4.36612 13.9362 4.75106L14.012 4.72322C13.8712 4.33969 13.7511 3.97456 13.6651 3.63924L13.5868 3.65932ZM13.8595 3.06987C13.8633 3.19108 13.8664 3.30435 13.8357 3.39953C13.8063 3.49049 13.7454 3.56636 13.613 3.61101L13.6388 3.68755C13.7955 3.63472 13.8753 3.53965 13.9126 3.42434C13.9484 3.31326 13.9439 3.18493 13.9402 3.06734L13.8595 3.06987ZM13.8579 2.90824C13.8561 2.96133 13.8578 3.01626 13.8595 3.06987L13.9402 3.06734C13.9385 3.01321 13.9369 2.96096 13.9386 2.91096L13.8579 2.90824ZM13.9348 2.86314C13.9203 2.8653 13.9059 2.86746 13.8918 2.86972L13.9047 2.94948C13.9182 2.9473 13.9322 2.94521 13.9467 2.94303L13.9348 2.86314ZM14.3677 2.00555C14.4335 2.40929 14.3777 2.61053 14.2878 2.71615C14.1972 2.82243 14.0632 2.84394 13.9348 2.86314L13.9467 2.94303C14.0704 2.92454 14.2362 2.90124 14.3492 2.76853C14.4628 2.63515 14.5144 2.40323 14.4474 1.99256L14.3677 2.00555ZM13.9068 2.02795L14.4067 2.03943L14.4085 1.95868L13.9086 1.94719L13.9068 2.02795ZM13.5192 1.4308C13.7283 1.47915 13.8698 1.67267 13.8673 1.98725L13.9481 1.98789C13.9507 1.64871 13.7949 1.41163 13.5374 1.3521L13.5192 1.4308ZM13.4707 1.17987C13.4704 1.24767 13.4697 1.32579 13.4891 1.40147L13.5674 1.38143C13.551 1.31747 13.5511 1.24983 13.5515 1.18029L13.4707 1.17987ZM13.0254 0.911947C13.1469 0.895689 13.2352 0.894269 13.2993 0.903255C13.3631 0.912203 13.4001 0.931044 13.4227 0.952963C13.4451 0.974743 13.4577 1.00387 13.4643 1.04254C13.4711 1.08208 13.471 1.12745 13.4707 1.17987L13.5515 1.18029C13.5518 1.12969 13.5521 1.07679 13.544 1.02893C13.5356 0.980196 13.5179 0.932788 13.479 0.895029C13.4403 0.857411 13.3851 0.833713 13.3105 0.823257C13.2362 0.812837 13.1397 0.815146 13.0147 0.831881L13.0254 0.911947ZM12.8844 0.926971C12.9299 0.922758 12.9776 0.91835 13.0254 0.911947L13.0147 0.831881C12.9688 0.83803 12.9227 0.842299 12.8769 0.846535L12.8844 0.926971ZM12.5138 1.4104C12.4527 1.17117 12.4868 1.06597 12.5489 1.01252C12.582 0.984041 12.6279 0.965539 12.6862 0.952761C12.7446 0.939971 12.8113 0.933737 12.8844 0.926971L12.8769 0.846535C12.8051 0.853184 12.7331 0.859787 12.6689 0.873851C12.6046 0.887927 12.5439 0.910295 12.4962 0.951295C12.3969 1.03681 12.3729 1.18501 12.4355 1.43038L12.5138 1.4104ZM12.2022 2.05874C12.192 2.0259 12.1883 1.97474 12.194 1.9134C12.1996 1.85278 12.2142 1.78528 12.2382 1.72095C12.287 1.58988 12.3698 1.48382 12.483 1.45991L12.4663 1.38088C12.3121 1.41345 12.2147 1.55271 12.1625 1.69275C12.1359 1.76397 12.1198 1.83847 12.1135 1.90592C12.1073 1.97265 12.1105 2.03563 12.125 2.08261L12.2022 2.05874ZM11.9535 2.13547C12.0013 2.12883 12.0491 2.12407 12.1681 2.11082L12.1591 2.03053C12.0414 2.04364 11.9916 2.04862 11.9424 2.05546L11.9535 2.13547ZM11.6897 2.18022C11.8458 2.15283 11.8994 2.14299 11.9535 2.13547L11.9424 2.05546C11.8864 2.06324 11.8306 2.07348 11.6757 2.10065L11.6897 2.18022ZM11.7121 2.24188C11.7158 2.20968 11.7195 2.17709 11.7229 2.14455L11.6425 2.13632C11.6392 2.16828 11.6355 2.20036 11.6318 2.23266L11.7121 2.24188ZM12.168 3.00615C11.8908 2.9606 11.7736 2.85519 11.7243 2.72791C11.6725 2.59401 11.6909 2.42635 11.7121 2.24188L11.6318 2.23266C11.6113 2.41107 11.5885 2.6008 11.649 2.75706C11.712 2.91993 11.8604 3.03746 12.1549 3.08586L12.168 3.00615ZM12.2029 3.05682C12.2025 3.05214 12.2021 3.04745 12.2017 3.04275L12.1212 3.04927C12.1216 3.05394 12.122 3.05861 12.1224 3.0633L12.2029 3.05682ZM12.4785 3.64281C12.2394 3.49308 12.2213 3.28547 12.2029 3.05682L12.1224 3.0633C12.1406 3.29021 12.1591 3.53816 12.4357 3.71128L12.4785 3.64281ZM12.4609 8.63504L12.4975 3.67734L12.4167 3.67674L12.3801 8.63445L12.4609 8.63504ZM12.7829 5.02378L12.8386 7.49581L12.9194 7.49399L12.8637 5.02196L12.7829 5.02378ZM12.9823 4.70318C12.9076 4.72726 12.8554 4.77009 12.8233 4.82805C12.7918 4.88477 12.7815 4.95242 12.7829 5.02364L12.8637 5.0221C12.8624 4.95856 12.872 4.90681 12.8939 4.86722C12.9152 4.82888 12.95 4.79847 13.0071 4.78007L12.9823 4.70318ZM13.45 4.66789L12.9917 4.70134L12.9976 4.78191L13.4559 4.74845L13.45 4.66789ZM13.748 4.87998C13.7327 4.83485 13.7144 4.77812 13.6701 4.73537C13.6238 4.69074 13.5557 4.66639 13.4524 4.66778L13.4535 4.74855C13.5437 4.74734 13.5881 4.76853 13.614 4.7935C13.6418 4.82035 13.6551 4.85729 13.6715 4.90583L13.748 4.87998ZM13.7667 4.93145C13.76 4.91543 13.7543 4.89853 13.748 4.87998L13.6715 4.90583C13.6776 4.92389 13.6842 4.94359 13.6923 4.96275L13.7667 4.93145ZM14.2664 7.28252L13.769 4.93872L13.69 4.95549L14.1874 7.29929L14.2664 7.28252ZM14.2817 7.37919C14.2767 7.34933 14.2714 7.31823 14.2669 7.28542L14.1869 7.2964C14.1916 7.33056 14.197 7.3628 14.202 7.39253L14.2817 7.37919ZM14.0619 7.75606C14.1842 7.73925 14.2579 7.69902 14.2867 7.62229C14.3001 7.58679 14.3019 7.54769 14.2993 7.50817C14.2967 7.46865 14.2893 7.42479 14.2817 7.3792L14.202 7.39253C14.2098 7.43928 14.2164 7.47883 14.2187 7.51349C14.221 7.54814 14.2186 7.57398 14.2111 7.5939C14.1983 7.628 14.1639 7.66051 14.0509 7.67603L14.0619 7.75606ZM13.0963 7.83624L14.0598 7.75629L14.0531 7.67579L13.0896 7.75574L13.0963 7.83624ZM12.8386 7.49534C12.8401 7.63185 12.8666 7.71833 12.9167 7.77067C12.9676 7.8237 13.0345 7.83273 13.0904 7.8363L13.0955 7.75568C13.0417 7.75225 13.003 7.74394 12.9751 7.71477C12.9464 7.68491 12.9208 7.62435 12.9194 7.49446L12.8386 7.49534Z" fill="white"/>
<path fill-rule="evenodd" clip-rule="evenodd" d="M12.4454 5.35759L11.2037 5.43866C11.1345 5.23186 10.7508 5.21874 10.4689 5.23318C10.0839 5.25291 9.75436 5.51862 9.89977 5.85058C10.0601 6.21664 10.68 6.11292 11.229 5.91667L12.4407 5.8186L12.4454 5.35759Z" fill="white" stroke="white" stroke-width="0.08078"/>
<path fill-rule="evenodd" clip-rule="evenodd" d="M12.4373 7.48876L11.1956 7.56983C11.1264 7.36303 10.7387 7.42698 10.4568 7.44143C10.0718 7.46116 9.63688 7.724 9.89164 7.98175C10.1603 8.25353 10.6719 8.2441 11.2209 8.04785L12.4326 7.94978L12.4373 7.48876Z" fill="white" stroke="white" stroke-width="0.08078"/>
<path fill-rule="evenodd" clip-rule="evenodd" d="M14.1702 5.19333L14.9728 5.14433C15.0275 5.49417 15.2806 5.79085 15.6959 5.71535C15.9775 5.66415 16.3149 5.28436 16.3 4.78829C16.2867 4.3438 15.8397 3.99559 15.4477 4.02515C15.1416 4.04825 14.9247 4.29274 14.9291 4.67725L13.9621 4.70947L14.1702 5.19333Z" fill="white" stroke="white" stroke-width="0.08078"/>
<path fill-rule="evenodd" clip-rule="evenodd" d="M14.5971 6.95685L15.4856 6.90157C15.5403 7.25141 15.7934 7.54809 16.2087 7.47259C16.4903 7.42139 16.8277 7.0416 16.8128 6.54553C16.7994 6.10104 16.3525 5.75283 15.9605 5.7824C15.6543 5.80549 15.4375 6.04998 15.4419 6.43449L14.535 6.50071L14.5971 6.95685Z" fill="white" stroke="white" stroke-width="0.08078"/>
<path fill-rule="evenodd" clip-rule="evenodd" d="M16.7992 59.1999C16.6832 59.3342 16.8401 60.0022 17.4504 59.9396C18.0348 59.8797 18.1015 59.2239 17.9622 59.1422L16.7992 59.1999Z" fill="white" stroke="white" stroke-width="0.08078"/>
<path fill-rule="evenodd" clip-rule="evenodd" d="M17.2055 59.9304L17.8175 67.5678L18.4011 72.8124L18.0428 65.6009L17.7647 59.781C17.6254 59.9101 17.4269 59.9394 17.2055 59.9304Z" fill="white" stroke="white" stroke-width="0.08078"/>
<path fill-rule="evenodd" clip-rule="evenodd" d="M15.7486 59.3037C15.7486 59.3037 15.7852 59.62 16.0481 59.689C16.3111 59.7581 16.8002 59.5798 16.8002 59.5798L16.7996 59.1999L15.7486 59.3037Z" fill="white" stroke="white" stroke-width="0.08078"/>
<path opacity="0.98" fill-rule="evenodd" clip-rule="evenodd" d="M16.8859 58.895L18.236 58.7965C18.2583 58.068 18.1168 56.5911 17.9901 55.8013C17.8336 53.9363 17.6094 52.9004 17.9725 50.7264C18.3129 49.6396 18.3371 48.3932 18.3063 47.1189C17.435 47.428 16.4841 47.6186 15.29 47.4477C15.5028 48.5984 15.5865 49.7081 16.1443 50.9685C16.8254 52.6677 16.8244 54.0858 16.7725 55.483C16.6704 56.6306 16.7769 57.7629 16.8859 58.895Z" fill="white" stroke="white" stroke-width="0.08078"/>
<path fill-rule="evenodd" clip-rule="evenodd" d="M15.8861 47.5798L15.6087 46.0851L15.0401 41.8201L12.7933 7.89454L12.9888 7.89967L13.3237 7.87522" fill="white"/>
<path d="M15.8861 47.5798L15.6087 46.0851L15.0401 41.8201L12.7933 7.89454L12.9888 7.89967L13.3237 7.87522" stroke="white" stroke-width="0.08078"/>
<path fill-rule="evenodd" clip-rule="evenodd" d="M16.7392 48.9132L16.2429 42.1162L16.215 41.7343L13.3236 7.87527L13.3586 7.87272L13.5033 8.03048" fill="white"/>
<path d="M16.7392 48.9132L16.2429 42.1162L16.215 41.7343L13.3236 7.87527L13.3586 7.87272L13.5033 8.03048" stroke="white" stroke-width="0.08078"/>
<path fill-rule="evenodd" clip-rule="evenodd" d="M17.3849 48.8276L17.0935 42.2076L17.0489 41.5966L13.8912 7.81434L13.8253 7.83856" fill="white"/>
<path d="M17.3849 48.8276L17.0935 42.2076L17.0489 41.5966L13.8912 7.81434L13.8253 7.83856" stroke="white" stroke-width="0.08078"/>
<path fill-rule="evenodd" clip-rule="evenodd" d="M18.0375 48.8185L18.0161 42.2171L17.9604 41.4534L14.257 7.55746" fill="white"/>
<path d="M18.0375 48.8185L18.0161 42.2171L17.9604 41.4534L14.257 7.55746" stroke="white" stroke-width="0.08078"/>
</g>
<path d="M9.62529 42.3037C12.3798 47.7207 11.0115 51.0509 5.0879 51.3069C6.97099 53.5084 6.88936 53.5307 8.03597 54.3465C9.22083 55.1606 10.5505 55.7783 12.0249 56.1992C13.5362 56.5839 15.1524 56.7388 16.8737 56.6644C19.7043 56.5421 21.9159 55.841 23.5084 54.5606C25.1009 53.2803 25.8524 51.6035 25.7628 49.5307C25.7255 48.667 25.519 47.8798 25.1434 47.1691C24.806 46.4568 24.2407 45.789 23.4473 45.1656C22.6524 44.5077 21.5905 43.8786 20.2616 43.2783C18.9709 42.6765 17.3338 42.0376 15.3501 41.3619C12.9382 40.5315 10.9103 39.7192 9.26645 38.9249C7.62257 38.1306 6.30234 37.2877 5.30575 36.3962C4.30915 35.5047 3.57808 34.5498 3.11252 33.5315C2.68372 32.477 2.44021 31.276 2.38197 29.9286C2.31329 28.3393 2.55584 26.8577 3.10962 25.4838C3.70166 24.1083 4.55054 22.912 5.65627 21.8951C6.7605 20.8435 8.08557 20.0248 9.63147 19.4387C11.1759 18.8182 13.0503 18.2956 14.9246 18.2146C16.6076 18.1419 18.2131 18.1891 19.7829 18.5087C22.7973 19.3866 23.9559 20.089 24.4826 20.6142C25.0094 21.1393 25.0239 21.4748 25.0239 21.4748C25.0239 21.4748 24.0539 22.3568 25.2206 22.1384C26.3874 21.9199 25.2942 22.9559 25.2786 23.4801C25.1769 26.9015 28.3535 32.4208 20.8835 31.0633C13.4136 29.7059 22.8379 24.6312 21.3896 22.8247C19.6085 21.5171 17.494 20.9162 15.0459 21.022C12.7126 21.1228 10.8798 21.7212 9.54754 22.8172C8.2153 23.9132 7.58725 25.3422 7.6634 27.1043C7.69923 27.9334 7.88509 28.6869 8.22096 29.3647C8.55534 30.0079 9.08023 30.6256 9.79562 31.2177C10.5095 31.7753 11.4346 32.3411 12.5707 32.915C13.7054 33.4544 15.1093 34.0168 16.7825 34.6021C19.6623 35.6199 22.0611 36.5893 23.9787 37.5102C25.8948 38.3966 27.4291 39.3168 28.5817 40.2708C29.7328 41.1902 30.5618 42.1928 31.0686 43.2786C31.5739 44.3298 31.8556 45.5291 31.9139 46.8765C31.9885 48.604 31.6747 50.2098 30.9724 51.6941C30.2701 53.1779 29.2528 54.468 27.9205 55.564C26.5883 56.66 24.9786 57.5431 23.0914 58.2131C21.2027 58.8486 19.1109 59.2159 16.8158 59.3151C14.6355 59.4093 12.6536 59.218 10.8702 58.7413C9.12497 58.2629 7.3251 57.4061 5.47056 56.1709C5.47056 56.1709 -2.30628 50.0446 3.60661 49.4077C9.51949 48.7707 3.23149 42.1025 1.74265 42.6444C0.253811 43.1863 6.87074 36.8867 9.62529 42.3037Z" fill="white"/>
<defs>
<clipPath id="clip0_2_5">
<rect width="22.4949" height="74.5598" fill="white" transform="translate(1.92847 1.63812) rotate(-4.17614)"/>
</clipPath>
</defs>
</svg>
